<?xml version="1.0" encoding="utf-8"?>
<!-- Generator: Adobe Illustrator 21.0.0, SVG Export Plug-In . SVG Version: 6.00 Build 0)  -->
<svg version="1.1" id="Layer_1" xmlns="http://www.w3.org/2000/svg" xmlns:xlink="http://www.w3.org/1999/xlink" x="0px" y="0px"
	 viewBox="0 0 31.9 31.9" style="enable-background:new 0 0 31.9 31.9;" xml:space="preserve">
<style type="text/css">
	.st0{fill:#FEDB41;}
	.st1{fill:#00EFD1;}
	.st2{fill:#00ACEA;}
	.st3{fill:#083863;}
</style>
<path class="st0" d="M25.4,31.4l-3.3-6.5l1.4-1.4l1.4-1.4l6.5,3.3l-4.6,1.4L25.4,31.4z"/>
<path class="st1" d="M20.9,20.9l-1.6,1.6L17,20.3l3.2-3.2l2.3,2.3L20.9,20.9z"/>
<path class="st2" d="M17,20.3L14.7,18l0,0l3.2-3.2l2.3,2.3L17,20.3z"/>
<path class="st1" d="M14.7,17.9l-2.3-2.3l3.2-3.2l2.3,2.3L14.7,17.9L14.7,17.9z"/>
<path class="st2" d="M13.3,10.1l2.3,2.3l-3.2,3.2l-2.3-2.3L13.3,10.1z"/>
<path class="st1" d="M13.3,10.1l-3.2,3.2L7.8,11L11,7.8L13.3,10.1z"/>
<path class="st2" d="M7.8,11l-0.7-0.7C6.2,9.5,6.2,8,7.1,7.1c0.9-0.9,2.3-0.9,3.2,0L11,7.8L7.8,11z"/>
<path class="st3" d="M26,31.5l1.3-4.3l4.3-1.3c0.2-0.1,0.4-0.3,0.4-0.5c0-0.2-0.1-0.4-0.3-0.5l-6.5-3.3c-0.2-0.1-0.5-0.1-0.6,0.1
	l-1,1l-1.8-1.8l1.2-1.2c0.2-0.2,0.2-0.6,0-0.8L10.7,6.7c-1-1-2.5-1.1-3.6-0.4L0.9,0.2c-0.2-0.2-0.6-0.2-0.8,0s-0.2,0.6,0,0.8
	l6.2,6.2c-0.7,1.1-0.6,2.6,0.4,3.6l0.7,0.7l11.5,11.5c0.2,0.2,0.6,0.2,0.8,0l1.2-1.2l1.8,1.8l-1,1c-0.2,0.2-0.2,0.4-0.1,0.6l3.3,6.5
	c0.1,0.2,0.3,0.3,0.5,0.3C25.7,31.9,25.9,31.8,26,31.5z M15.6,13.2l1.5,1.5l-2.4,2.4l-1.5-1.5L15.6,13.2z M12.4,14.9l-1.5-1.5
	l2.4-2.4l1.5,1.5L12.4,14.9z M17.9,15.5l1.5,1.5L17,19.5l-1.5-1.5L17.9,15.5z M7.5,7.5c0.7-0.7,1.8-0.7,2.4,0l0.3,0.3l-2.4,2.4
	L7.5,10C6.8,9.3,6.8,8.2,7.5,7.5L7.5,7.5z M8.6,11L11,8.6l1.5,1.5l-2.4,2.4L8.6,11z M17.8,20.3l2.4-2.4l1.5,1.5l-2.4,2.4L17.8,20.3z
	 M22.8,25l2.3-2.3l4.9,2.5l-3.3,1c-0.2,0.1-0.3,0.2-0.4,0.4l-1,3.3L22.8,25z"/>
</svg>
