<svg xmlns="http://www.w3.org/2000/svg" xmlns:xlink="http://www.w3.org/1999/xlink" viewBox="0 0 519.05 519.05"><defs><style>.cls-1{fill:none;}.cls-2{fill:#a3d6f5;}.cls-3{clip-path:url(#clip-path);}.cls-4{fill:#dbf3fc;}.cls-5{fill:#bde5f9;}.cls-6{fill:#f1c82f;}.cls-7{fill:#f4beab;}.cls-8{fill:#facab6;}.cls-9{fill:#fff;}.cls-10{fill:#ebebeb;}.cls-11{fill:#66a7c5;}.cls-12{fill:#3c7496;}</style><clipPath id="clip-path" transform="translate(9.52 9.52)"><rect class="cls-1" width="500" height="500"/></clipPath></defs><title>domain</title><g id="BACKGROUND"><rect class="cls-2" x="9.52" y="9.52" width="500" height="500"/><g class="cls-3"><rect class="cls-4" x="441.57" y="333.8" width="2.5" height="2" transform="translate(-67.76 150.24) rotate(-16.63)"/><path class="cls-4" d="M449.48,333.86l-.57-1.92,5.17-1.54.57,1.92Zm10.34-3.09-.57-1.92,5.17-1.54.57,1.92Zm10.34-3.09-.57-1.92,5.17-1.54.57,1.92Zm10.34-3.09-.57-1.92,5.17-1.54.57,1.92Zm10.34-3.09-.57-1.92,5.17-1.54L496,320Z" transform="translate(9.52 9.52)"/><polygon class="cls-4" points="513.8 328.78 511.8 328.78 511.8 327.62 510.69 327.95 510.12 326.04 513.8 324.94 513.8 328.78"/><path class="cls-4" d="M504.28,342.22h-2v-5.74h2Zm0-11.48h-2V325h2Z" transform="translate(9.52 9.52)"/><polygon class="cls-4" points="513.8 361.26 510.14 360.37 510.61 358.43 511.8 358.72 511.8 357.49 513.8 357.49 513.8 361.26"/><path class="cls-4" d="M496.13,349.76l-4.48-1.09.47-1.94,4.48,1.09Zm-9-2.17-4.48-1.09.47-1.94,4.48,1.09Zm-9-2.17-4.48-1.09.47-1.94,4.48,1.09Zm-9-2.17-4.48-1.09.47-1.94,4.48,1.09Zm-9-2.17L455.81,340l.47-1.94,4.48,1.09Zm-9-2.17-4.48-1.09.47-1.94L451.8,337Z" transform="translate(9.52 9.52)"/><rect class="cls-4" x="440.38" y="334.21" width="2" height="2.5" transform="translate(20.8 694.78) rotate(-76.36)"/><polygon class="cls-4" points="8.58 52.74 3.95 52.07 7.47 49 8.79 50.51 8.54 50.72 8.86 50.77 8.58 52.74"/><path class="cls-4" d="M3,37.76,1.64,36.26,5.33,33l1.31,1.51Zm7.38-6.44L9,29.82l3.69-3.22L14,28.1Zm7.38-6.44-1.31-1.51,3.69-3.22,1.31,1.51Zm7.38-6.44-1.31-1.51,3.69-3.22,1.31,1.51ZM32.49,12l-1.31-1.51,3.69-3.22,1.31,1.51Zm7.38-6.44L38.56,4.05,42.25.83l1.31,1.51Z" transform="translate(9.52 9.52)"/><polygon class="cls-4" points="58.3 8.92 57.72 7.83 56.78 8.64 55.47 7.14 58.3 4.66 60.07 7.98 58.3 8.92"/><path class="cls-4" d="M74.21,47.22l-2.54-4.78,1.77-.94L76,46.28Zm-5.09-9.56-2.54-4.78,1.77-.94,2.54,4.78ZM64,28.09l-2.54-4.78,1.77-.94,2.54,4.78ZM59,18.53l-2.54-4.78,1.77-.94,2.54,4.78ZM53.86,9,51.32,4.18l1.77-.94L55.63,8Z" transform="translate(9.52 9.52)"/><polygon class="cls-4" points="90.14 64.53 85.72 63.89 86 61.91 86.52 61.99 86.28 61.52 88.04 60.59 90.14 64.53"/><path class="cls-4" d="M71,53.63l-5.14-.74.29-2,5.14.74ZM60.76,52.14l-5.14-.74.29-2,5.14.74ZM50.48,50.65l-5.14-.74.29-2,5.14.74ZM40.19,49.17l-5.14-.74.29-2,5.14.74ZM29.91,47.68l-5.14-.74.29-2,5.14.74ZM19.62,46.19l-5.14-.74.29-2,5.14.74ZM9.34,44.71,4.2,44l.29-2,5.14.74Z" transform="translate(9.52 9.52)"/><polygon class="cls-4" points="40.66 113.07 38.76 109.76 40.49 108.76 41.08 109.79 41.91 108.95 43.34 110.35 40.66 113.07"/><path class="cls-4" d="M37.2,97.4,35.77,96l3.38-3.43L40.58,94ZM44,90.53l-1.42-1.4,3.38-3.43,1.42,1.4Zm6.76-6.86-1.42-1.4,3.38-3.43,1.42,1.4Zm6.76-6.86-1.42-1.4L59.44,72l1.42,1.4Zm6.76-6.86-1.42-1.4,3.38-3.43,1.42,1.4ZM71,63.08l-1.42-1.4L73,58.25l1.42,1.4Z" transform="translate(9.52 9.52)"/><polygon class="cls-4" points="87.29 65.75 85.87 64.34 86.23 63.97 85.72 63.89 86 61.91 90.43 62.56 87.29 65.75"/><path class="cls-4" d="M71,53.63l-5.14-.74.29-2,5.14.74ZM60.76,52.14l-5.14-.74.29-2,5.14.74ZM50.48,50.65l-5.14-.74.29-2,5.14.74ZM40.19,49.17l-5.14-.74.29-2,5.14.74ZM29.91,47.68l-5.14-.74.29-2,5.14.74ZM19.62,46.19l-5.14-.74.29-2,5.14.74ZM9.34,44.71,4.2,44l.29-2,5.14.74Z" transform="translate(9.52 9.52)"/><polygon class="cls-4" points="6.63 54.06 4.35 50.11 8.86 50.77 8.58 52.74 8.14 52.68 8.36 53.06 6.63 54.06"/><path class="cls-4" d="M26.76,96l-2.47-4.28,1.73-1L28.49,95Zm-4.94-8.57L19.35,83.1l1.73-1,2.47,4.28Zm-4.94-8.57L14.4,74.53l1.73-1,2.47,4.29Zm-4.94-8.57L9.46,66l1.73-1,2.47,4.28ZM7,61.68,4.52,57.39l1.73-1,2.47,4.29ZM2,53.11-.42,48.82l1.73-1,2.47,4.28Z" transform="translate(9.52 9.52)"/><polygon class="cls-4" points="8.43 161.31 4.57 160.35 6.89 157.12 8.52 158.28 7.92 159.12 8.91 159.36 8.43 161.31"/><path class="cls-4" d="M1.87,144.74.25,143.57l2.88-4,1.63,1.16Zm5.77-8L6,135.53l2.88-4,1.63,1.17Zm5.77-8-1.62-1.17,2.88-4,1.62,1.17Zm5.77-8-1.63-1.17,2.88-4,1.63,1.16Zm5.77-8-1.62-1.17,2.88-4,1.62,1.17Z" transform="translate(9.52 9.52)"/><polygon class="cls-4" points="40.93 114.12 40.65 113.46 40.23 114.05 38.6 112.88 41.1 109.4 42.77 113.34 40.93 114.12"/><path class="cls-4" d="M54.55,159.06l-1.93-4.54,1.84-.78,1.93,4.54ZM50.69,150l-1.93-4.54,1.84-.78,1.93,4.54Zm-3.86-9.08-1.93-4.54,1.84-.78,1.93,4.54ZM43,131.83,41,127.29l1.84-.78L44.82,131Zm-3.86-9.08-1.93-4.54,1.84-.78L41,122Zm-3.86-9.08-1.93-4.54,1.84-.78,1.93,4.54Z" transform="translate(9.52 9.52)"/><polygon class="cls-4" points="69.6 176.49 65.23 175.4 65.71 173.46 66.19 173.58 66 173.13 67.84 172.34 69.6 176.49"/><path class="cls-4" d="M50.54,164.6l-5.16-1.28.48-1.94L51,162.66ZM40.22,162l-5.16-1.28.48-1.94,5.16,1.28Zm-10.33-2.56-5.16-1.28.48-1.94,5.16,1.28Zm-10.33-2.56-5.16-1.28.48-1.94L20,155ZM9.23,154.34l-5.16-1.28.48-1.94,5.16,1.28Z" transform="translate(9.52 9.52)"/><polygon class="cls-4" points="88.87 65.9 86.9 65.54 87.52 62.14 90.94 62.6 90.68 64.59 89.14 64.38 88.87 65.9"/><path class="cls-4" d="M60.74,158.14l-2-.36.93-5.09,2,.36ZM62.6,148l-2-.36.93-5.09,2,.36Zm1.86-10.18-2-.36.93-5.09,2,.36Zm1.86-10.18-2-.36.93-5.09,2,.36Zm1.86-10.18-2-.36.93-5.09,2,.36ZM70,107.26l-2-.36.93-5.09,2,.36ZM71.9,97.08l-2-.36.93-5.09,2,.36Zm1.86-10.18-2-.36.93-5.09,2,.36Zm1.86-10.18-2-.36.93-5.09,2,.36Zm1.86-10.18-2-.36.93-5.09,2,.36Z" transform="translate(9.52 9.52)"/><polygon class="cls-4" points="66.04 179.67 67.36 172.4 68.33 172.57 68.44 172.4 68.85 172.67 69.33 172.75 69.29 172.96 70.11 173.5 66.04 179.67"/><path class="cls-4" d="M63.26,159.94l-1.67-1.1,2.67-4,1.67,1.1Zm5.34-8.08-1.67-1.1,2.67-4,1.67,1.1Zm5.34-8.08-1.67-1.1,2.67-4,1.67,1.1Zm5.34-8.08-1.67-1.1,2.67-4,1.67,1.1Zm5.34-8.08L83,126.51l2.67-4,1.67,1.1ZM90,119.53l-1.67-1.1,2.67-4,1.67,1.1Zm5.34-8.08-1.67-1.1,2.67-4,1.67,1.1Zm5.34-8.08L99,102.27l2.67-4,1.67,1.1ZM106,95.29l-1.67-1.1,2.67-4,1.67,1.1Zm5.34-8.08-1.67-1.1,2.67-4,1.67,1.1Zm5.34-8.08L115,78l2.67-4,1.67,1.1ZM122,71l-1.67-1.1,2.67-4,1.67,1.1Z" transform="translate(9.52 9.52)"/><path class="cls-4" d="M120.4,60.33l-4.91-.66.27-2,4.91.66ZM110.59,59l-4.91-.66.27-2,4.91.66Zm-9.81-1.32L95.87,57l.27-2,4.91.66ZM91,56.38l-4.91-.66.27-2,4.91.66Z" transform="translate(9.52 9.52)"/><polygon class="cls-4" points="150.73 8.89 149.18 8.58 149.08 8.68 148.95 8.54 148.77 8.5 148.8 8.37 147.73 7.2 151.83 3.42 150.73 8.89"/><path class="cls-4" d="M85.21,49.21l-1.35-1.47,3.88-3.58,1.35,1.47ZM93,42.06l-1.35-1.47L95.5,37l1.35,1.47Zm7.76-7.15-1.35-1.47,3.88-3.58,1.35,1.47Zm7.76-7.15-1.35-1.47L111,22.71l1.35,1.47Zm7.76-7.15-1.35-1.47,3.88-3.58L120.15,17ZM124,13.45,122.67,12l3.88-3.58,1.35,1.47Zm7.76-7.15-1.35-1.47,3.88-3.58,1.35,1.47Z" transform="translate(9.52 9.52)"/><polygon class="cls-4" points="90.68 64.59 86.09 63.97 89.49 60.83 90.85 62.3 90.58 62.55 90.94 62.6 90.68 64.59"/><path class="cls-4" d="M120.41,60.33l-4.91-.66.27-2,4.91.66ZM110.59,59l-4.91-.66.27-2,4.91.66Zm-9.81-1.32L95.87,57l.27-2,4.91.66ZM91,56.38l-4.91-.66.27-2,4.91.66Z" transform="translate(9.52 9.52)"/><path class="cls-4" d="M130.3,53.56l-2-.39.91-4.52,2,.39Zm1.82-9-2-.39.91-4.52,2,.39Zm1.82-9-2-.39.91-4.52,2,.39Zm1.82-9-2-.39.91-4.52,2,.39Zm1.82-9-2-.39.91-4.52,2,.39Zm1.82-9-2-.39.91-4.52,2,.39Z" transform="translate(9.52 9.52)"/><polygon class="cls-4" points="214.37 8.62 213.11 7.55 211.84 8.62 210.55 7.09 213.11 4.94 215.66 7.1 214.37 8.62"/><path class="cls-4" d="M141.82,50l-1.29-1.53,3.78-3.18,1.29,1.53Zm7.56-6.36-1.29-1.53,3.78-3.18,1.29,1.53Zm7.56-6.36-1.29-1.53,3.78-3.18,1.29,1.53Zm7.56-6.36-1.29-1.53L167,26.17l1.29,1.53Zm7.56-6.36L170.78,23l3.78-3.18,1.29,1.53Zm7.56-6.36-1.29-1.53,3.78-3.18L183.41,15Zm7.56-6.36-1.29-1.53,3.78-3.18L191,8.63Zm7.56-6.36-1.29-1.53L197.25.74l1.29,1.53Z" transform="translate(9.52 9.52)"/><path class="cls-4" d="M130.3,53.56l-2-.39.91-4.52,2,.39Zm1.82-9-2-.39.91-4.52,2,.39Zm1.82-9-2-.39.91-4.52,2,.39Zm1.82-9-2-.39.91-4.52,2,.39Zm1.82-9-2-.39.91-4.52,2,.39Zm1.82-9-2-.39.91-4.52,2,.39Z" transform="translate(9.52 9.52)"/><polygon class="cls-4" points="150.73 8.89 148.77 8.5 149.43 5.25 152.74 5.25 152.74 7.25 151.06 7.25 150.73 8.89"/><path class="cls-4" d="M280.41-2.28h-4.9v-2h4.9Zm-9.8,0h-4.9v-2h4.9Zm-9.8,0h-4.9v-2h4.9Zm-9.8,0h-4.9v-2H251Zm-9.8,0h-4.9v-2h4.9Zm-9.8,0h-4.9v-2h4.9Zm-9.8,0h-4.9v-2h4.9Zm-9.8,0h-4.9v-2h4.9Zm-9.8,0h-4.9v-2H202Zm-9.8,0h-4.9v-2h4.9Zm-9.8,0h-4.9v-2h4.9Zm-9.8,0h-4.9v-2h4.9Zm-9.8,0h-4.9v-2h4.9Zm-9.8,0h-4.9v-2H153Z" transform="translate(9.52 9.52)"/><polygon class="cls-4" points="297.08 8.93 295.3 8.02 295.7 7.25 294.83 7.25 294.83 5.25 298.96 5.25 297.08 8.93"/><path class="cls-4" d="M266.56,40.6l-1.78-.91,2.1-4.12,1.78.91Zm4.2-8.24L269,31.45l2.1-4.12,1.78.91Zm4.2-8.24-1.78-.91,2.1-4.12,1.78.91Zm4.2-8.24L277.38,15l2.1-4.12,1.78.91Zm4.2-8.24-1.78-.91,2.1-4.12,1.78.91Z" transform="translate(9.52 9.52)"/><polygon class="cls-4" points="272.27 57.59 269.4 55.16 270.69 53.63 271.64 54.43 272.2 53.33 273.98 54.24 272.27 57.59"/><path class="cls-4" d="M256.21,42.53l-3.67-3.1,1.29-1.53L257.5,41Zm-7.34-6.21-3.67-3.1,1.29-1.53,3.67,3.1Zm-7.34-6.2L237.86,27l1.29-1.53,3.67,3.1Zm-7.34-6.21-3.67-3.1,1.29-1.53,3.67,3.1Zm-7.34-6.2-3.67-3.1,1.29-1.53,3.67,3.1Zm-7.34-6.2-3.67-3.1,1.29-1.53,3.67,3.1ZM212.19,5.3l-3.67-3.1L209.81.68l3.67,3.1Z" transform="translate(9.52 9.52)"/><polygon class="cls-4" points="374.93 8.7 373.64 7.45 372.02 8.24 371.14 6.45 374.01 5.04 376.32 7.26 374.93 8.7"/><path class="cls-4" d="M269.75,44l-.88-1.8L273.51,40l.88,1.8ZM279,39.49l-.88-1.8,4.64-2.27.88,1.8ZM288.3,35l-.88-1.8,4.64-2.27.88,1.8Zm9.27-4.53-.88-1.8,4.64-2.27.88,1.8Zm9.27-4.53L306,24.1l4.64-2.27.88,1.8Zm9.27-4.53-.88-1.8,4.64-2.27.88,1.8Zm9.27-4.53-.88-1.8,4.64-2.27.88,1.8Zm9.27-4.53-.88-1.8,4.64-2.27.88,1.8Zm9.27-4.53L343.07,6l4.64-2.27.88,1.8Zm9.27-4.53-.88-1.8L357-.81l.88,1.8Z" transform="translate(9.52 9.52)"/><polygon class="cls-4" points="269.7 58.22 272.2 53.33 273.65 54.07 273.76 54.02 273.83 54.16 273.98 54.24 273.92 54.35 274.64 55.81 269.7 58.22"/><path class="cls-4" d="M266.56,40.6l-1.78-.91,2.1-4.12,1.78.91Zm4.2-8.24L269,31.45l2.1-4.12,1.78.91Zm4.2-8.24-1.78-.91,2.1-4.12,1.78.91Zm4.2-8.24L277.38,15l2.1-4.12,1.78.91Zm4.2-8.24-1.78-.91,2.1-4.12,1.78.91Z" transform="translate(9.52 9.52)"/><polygon class="cls-4" points="297.08 8.93 295.3 8.02 296.72 5.25 299.83 5.25 299.83 7.25 297.94 7.25 297.08 8.93"/><path class="cls-4" d="M424.48-2.28h-5.16v-2h5.16Zm-10.32,0H409v-2h5.16Zm-10.32,0h-5.16v-2h5.16Zm-10.32,0h-5.16v-2h5.16Zm-10.32,0H378v-2h5.16Zm-10.32,0h-5.16v-2h5.16Zm-10.32,0h-5.16v-2h5.16Zm-10.32,0h-5.16v-2h5.16Zm-10.32,0h-5.16v-2h5.16Zm-10.32,0h-5.16v-2h5.16Zm-10.32,0h-5.16v-2h5.16Zm-10.32,0h-5.16v-2h5.16Zm-10.32,0h-5.16v-2h5.16Z" transform="translate(9.52 9.52)"/><polygon class="cls-4" points="442.16 8.89 440.2 8.51 440.45 7.25 439.16 7.25 439.16 5.25 442.87 5.25 442.16 8.89"/><path class="cls-4" d="M423.92,44.08l-2-.38.87-4.47,2,.38Zm1.74-8.94-2-.38.87-4.47,2,.38Zm1.74-8.94-2-.38.87-4.47,2,.38Zm1.74-8.94-2-.38.87-4.47,2,.38Zm1.74-8.94-2-.38.87-4.47,2,.38Z" transform="translate(9.52 9.52)"/><polygon class="cls-4" points="429.67 62.49 430.61 57.69 432.57 58.07 432.55 58.18 432.65 58.12 433.75 59.79 429.67 62.49"/><path class="cls-4" d="M428.31,47.56l-1.1-1.67,4.08-2.7,1.1,1.67Zm8.16-5.4-1.1-1.67,4.08-2.7,1.1,1.67Zm8.16-5.4-1.1-1.67,4.08-2.7,1.1,1.67Zm8.16-5.4-1.1-1.67,4.08-2.7,1.1,1.67Zm8.16-5.4-1.1-1.67,4.08-2.7,1.1,1.67Zm8.16-5.4L468,18.88l4.08-2.7,1.1,1.67Zm8.16-5.4-1.1-1.67,4.08-2.7,1.1,1.67Zm8.16-5.4-1.1-1.67,4.08-2.7L489.5,7Zm8.16-5.4-1.1-1.67L496.56,0l1.1,1.67Z" transform="translate(9.52 9.52)"/><polygon class="cls-4" points="513.8 8.75 511.8 8.75 511.8 8.11 511.27 8.46 510.17 6.79 513.8 4.38 513.8 8.75"/><path class="cls-4" d="M504.28,52.5h-2V47.17h2Zm0-10.66h-2V36.52h2Zm0-10.66h-2V25.86h2Zm0-10.66h-2V15.21h2Zm0-10.66h-2V4.55h2Z" transform="translate(9.52 9.52)"/><polygon class="cls-4" points="511.42 72.16 510.21 70.57 511.8 69.36 511.8 67.35 513.8 67.35 513.8 70.35 511.42 72.16"/><path class="cls-4" d="M432.65,115.35l-1.21-1.59,3.85-2.93,1.21,1.59Zm7.69-5.86-1.21-1.59L443,105l1.21,1.59Zm7.69-5.86L446.82,102l3.85-2.93,1.21,1.59Zm7.69-5.86-1.21-1.59,3.85-2.93,1.21,1.59Zm7.69-5.86-1.21-1.59,3.85-2.93L467.27,89Zm7.69-5.86-1.21-1.59,3.85-2.93L475,83.14Zm7.69-5.86-1.21-1.59,3.85-2.93,1.21,1.59Zm7.69-5.86-1.21-1.59,3.85-2.93,1.21,1.59Zm7.69-5.86L493,66.91,496.84,64,498,65.57Z" transform="translate(9.52 9.52)"/><polygon class="cls-4" points="438.06 129.88 433.23 129.16 437.11 126.21 438.32 127.8 438.22 127.88 438.35 127.9 438.06 129.88"/><path class="cls-4" d="M495.85,130.26l-4.81-.71.29-2,4.81.71Zm-9.62-1.42-4.81-.71.29-2,4.81.71Zm-9.62-1.42-4.81-.71.29-2,4.81.71ZM467,126l-4.81-.71.29-2,4.81.71Zm-9.62-1.42-4.81-.71.29-2,4.81.71Zm-9.62-1.42-4.81-.71.29-2,4.81.71Zm-9.62-1.42-4.81-.71.29-2,4.81.71Z" transform="translate(9.52 9.52)"/><polygon class="cls-4" points="515.75 141.31 510.18 140.49 510.41 138.95 510.31 138.85 510.45 138.71 510.47 138.51 510.61 138.53 511.69 137.41 515.75 141.31"/><path class="cls-4" d="M497.12,125.81l-3.66-3.52,1.39-1.44,3.66,3.52Zm-7.32-7-3.66-3.52,1.39-1.44,3.66,3.52Zm-7.32-7-3.66-3.52,1.39-1.44,3.66,3.52Zm-7.32-7-3.66-3.52,1.39-1.44,3.66,3.52Zm-7.32-7-3.66-3.52,1.39-1.44,3.66,3.52Zm-7.32-7-3.66-3.52,1.39-1.44,3.66,3.52Zm-7.32-7-3.66-3.52,1.39-1.44,3.66,3.52Zm-7.32-7L442.24,73l1.39-1.44,3.66,3.52Zm-7.32-7L434.93,66l1.39-1.44L440,68.09Zm-7.32-7L427.61,59,429,57.54l3.66,3.52Zm-7.32-7-3.66-3.52,1.39-1.44L425.34,54Zm-7.32-7L413,44.91l1.39-1.44L418,47Zm-7.32-7-3.66-3.52L407,36.43l3.66,3.52Zm-7.32-7-3.66-3.52,1.39-1.44,3.66,3.52Zm-7.32-7L391,23.8l1.39-1.44,3.66,3.52Zm-7.32-7-3.66-3.52,1.39-1.44,3.66,3.52Zm-7.32-7-3.66-3.52,1.39-1.44,3.66,3.52Zm-7.32-7-3.66-3.52,1.39-1.44,3.66,3.52Z" transform="translate(9.52 9.52)"/><rect class="cls-4" x="501.04" y="58.94" width="2" height="2.5" transform="translate(393.63 561.39) rotate(-83.35)"/><path class="cls-4" d="M495.56,60.44l-5.12-.6.23-2,5.12.6Zm-10.23-1.19-5.12-.6.23-2,5.12.6Zm-10.23-1.19-5.12-.6.23-2,5.12.6Zm-10.23-1.19-5.12-.6.23-2,5.12.6Zm-10.23-1.19-5.11-.6.23-2,5.11.6Zm-10.23-1.19-5.11-.6.23-2,5.11.6Zm-10.23-1.19-5.11-.6.23-2,5.11.6Z" transform="translate(9.52 9.52)"/><polygon class="cls-4" points="430.28 62.9 430.03 59.2 433.71 59.63 433.48 61.62 432.19 61.47 432.28 62.76 430.28 62.9"/><path class="cls-4" d="M424.71,111.71l-.33-4.86,2-.13.33,4.86ZM424,102l-.33-4.86,2-.13.33,4.86Zm-.66-9.72-.33-4.86,2-.13.33,4.86Zm-.66-9.72-.33-4.86,2-.13.33,4.86Zm-.66-9.72L421.75,68l2-.13.33,4.86Zm-.66-9.72-.33-4.86,2-.13.33,4.86Z" transform="translate(9.52 9.52)"/><polygon class="cls-4" points="436.89 130.98 433.22 127.55 434.56 126.11 434.56 126.09 434.58 126.09 434.59 126.09 436.56 125.96 436.89 130.98"/><path class="cls-4" d="M420.2,114.77l-3.5-3.26,1.36-1.46,3.5,3.26Zm-7-6.51-3.5-3.26,1.36-1.46,3.5,3.26Zm-7-6.51-3.5-3.26L404.08,97l3.5,3.26Zm-7-6.51L395.72,92l1.36-1.46,3.5,3.26Zm-7-6.51-3.5-3.26L390.09,84l3.5,3.26Zm-7-6.51L381.74,79l1.36-1.46,3.5,3.26Zm-7-6.51-3.5-3.26L376.11,71l3.5,3.26Zm-7-6.51-3.5-3.26,1.36-1.46,3.5,3.26Zm-7-6.51-3.5-3.26L362.12,58l3.5,3.26Z" transform="translate(9.52 9.52)"/><polygon class="cls-4" points="366.79 65.7 364.57 63.64 365 60.65 366.99 60.93 366.7 62.89 368.15 64.23 366.79 65.7"/><path class="cls-4" d="M358.14,46.67l-2-.28.68-4.73,2,.28Zm1.36-9.47-2-.28.68-4.73,2,.28Zm1.36-9.47-2-.28.68-4.73,2,.28Zm1.36-9.47-2-.28.68-4.73,2,.28Zm1.36-9.47-2-.28.68-4.73,2,.28Z" transform="translate(9.52 9.52)"/><rect class="cls-4" x="362.87" y="-3.04" width="2.5" height="2" transform="translate(323.94 368.2) rotate(-81.83)"/><rect class="cls-4" x="419.09" y="49.87" width="2.5" height="2" transform="translate(7.66 28.45) rotate(-2.57)"/><path class="cls-4" d="M363.31,54.42l-.09-2,4.65-.21.09,2Zm9.3-.42-.09-2,4.65-.21.09,2Zm9.3-.42-.09-2,4.65-.21.09,2Zm9.3-.42-.09-2,4.65-.21.09,2Zm9.3-.42-.09-2,4.65-.21.09,2Zm9.3-.42-.09-2,4.65-.21.09,2Z" transform="translate(9.52 9.52)"/><rect class="cls-4" x="356.11" y="52.68" width="2.5" height="2" transform="translate(7.47 25.62) rotate(-2.57)"/><polygon class="cls-4" points="512.23 142.5 512.04 142.37 511.8 142.37 511.8 142.21 510.57 141.38 513.8 136.6 513.8 142.37 512.32 142.37 512.23 142.5"/><path class="cls-4" d="M466.13,187.13,464.47,186l2.61-3.87,1.66,1.12Zm5.23-7.74-1.66-1.12,2.61-3.87,1.66,1.12Zm5.22-7.74-1.66-1.12,2.61-3.87,1.66,1.12Zm5.22-7.74-1.66-1.12,2.61-3.87,1.66,1.12Zm5.22-7.74-1.66-1.12L488,151.2l1.66,1.12Zm5.23-7.74-1.66-1.12,2.61-3.87,1.66,1.12Zm5.22-7.74-1.66-1.12,2.61-3.87,1.66,1.12Z" transform="translate(9.52 9.52)"/><polygon class="cls-4" points="472.19 204.35 469.46 202.25 471.39 199.4 473.04 200.52 472.17 201.81 473.41 202.77 472.19 204.35"/><path class="cls-4" d="M496.46,220.9l-4.23-3.26,1.22-1.58,4.23,3.26ZM488,214.38l-4.23-3.26,1.22-1.58,4.23,3.26Zm-8.45-6.52-4.23-3.26,1.22-1.58,4.23,3.26Z" transform="translate(9.52 9.52)"/><polygon class="cls-4" points="513.8 236.45 510.21 233.68 511.43 232.09 511.8 232.38 511.8 231.91 513.8 231.91 513.8 236.45"/><path class="cls-4" d="M504.28,217.12h-2v-5.27h2Zm0-10.53h-2v-5.27h2Zm0-10.53h-2v-5.27h2Zm0-10.53h-2v-5.27h2Zm0-10.53h-2v-5.27h2Zm0-10.53h-2v-5.27h2Zm0-10.53h-2v-5.27h2Zm0-10.53h-2v-5.27h2Z" transform="translate(9.52 9.52)"/><polygon class="cls-4" points="471.74 282.01 469.46 279.46 471.79 276.97 473.25 278.33 472.17 279.49 473.23 280.67 471.74 282.01"/><path class="cls-4" d="M467.24,265l-1.46-1.36,3.51-3.76,1.46,1.36Zm14-15.06-1.46-1.36,3.51-3.76,1.46,1.36Zm7-7.53-1.46-1.36,3.51-3.76,1.46,1.36Zm7-7.53-1.46-1.36,3.51-3.76,1.46,1.36Z" transform="translate(9.52 9.52)"/><polygon class="cls-4" points="511.83 236.92 510.37 235.56 513.8 231.87 513.8 236.91 511.83 236.92"/><path class="cls-4" d="M504.28,309.15h-2V304h2Zm0-10.22h-2v-5.11h2Zm0-10.22h-2V283.6h2Zm0-10.22h-2v-5.11h2Zm0-10.22h-2v-5.11h2Zm0-10.22h-2v-5.11h2Zm0-10.22h-2v-5.11h2Zm0-10.22h-2V232.5h2Z" transform="translate(9.52 9.52)"/><polygon class="cls-4" points="513.8 328.89 510.39 325.09 511.88 323.75 511.9 323.78 513.8 323.78 513.8 328.89"/><path class="cls-4" d="M497.35,311.65l-3.51-3.92,1.49-1.34,3.51,3.92Zm-7-7.83-3.51-3.92,1.49-1.34,3.51,3.92Zm-7-7.83-3.51-3.92,1.49-1.34,3.51,3.92Zm-7-7.83-3.51-3.92,1.49-1.34,3.51,3.92Zm-7-7.83-3.51-3.92,1.49-1.34,3.51,3.92Z" transform="translate(9.52 9.52)"/><polygon class="cls-4" points="511.57 470.72 510.26 469.21 510.5 469 510.19 468.96 510.47 466.98 515.1 467.65 511.57 470.72"/><path class="cls-4" d="M457.75,499.84l-1.31-1.51,3.69-3.22,1.31,1.51Zm7.38-6.44-1.31-1.51,3.69-3.22,1.31,1.51Zm7.38-6.44-1.31-1.51,3.69-3.22,1.31,1.51Zm7.38-6.44L478.59,479l3.69-3.22,1.31,1.51Zm7.38-6.44L486,472.57l3.69-3.22,1.31,1.51Zm7.38-6.44-1.31-1.51,3.69-3.22,1.31,1.51Z" transform="translate(9.52 9.52)"/><polygon class="cls-4" points="460.74 515.06 458.98 511.74 460.75 510.8 461.33 511.89 462.26 511.08 463.58 512.59 460.74 515.06"/><path class="cls-4" d="M446.91,497.43l-2.54-4.78,1.77-.94,2.54,4.78Zm-5.09-9.56-2.54-4.78,1.77-.94,2.54,4.78Zm-5.09-9.56-2.54-4.78,1.77-.94,2.54,4.78Zm-5.09-9.56L429.11,464l1.77-.94,2.54,4.78Zm-5.09-9.56L424,454.39l1.77-.94,2.54,4.78Z" transform="translate(9.52 9.52)"/><polygon class="cls-4" points="431 459.14 428.9 455.19 433.33 455.83 433.05 457.81 432.52 457.73 432.77 458.2 431 459.14"/><path class="cls-4" d="M495.52,458.69l-5.14-.74.29-2,5.14.74Zm-10.29-1.49-5.14-.74.29-2,5.14.74Zm-10.29-1.49-5.14-.74.29-2,5.14.74Zm-10.29-1.49-5.14-.74.29-2,5.14.74Zm-10.29-1.49-5.14-.74.29-2,5.14.74Zm-10.29-1.49-5.14-.74.29-2,5.14.74Zm-10.28-1.49-5.14-.74.29-2,5.14.74Z" transform="translate(9.52 9.52)"/><polygon class="cls-4" points="478.56 410.96 477.97 409.93 477.13 410.77 475.71 409.37 478.39 406.65 480.29 409.96 478.56 410.96"/><path class="cls-4" d="M427,442.43l-1.42-1.4,3.38-3.43,1.42,1.4Zm6.76-6.86-1.42-1.4,3.38-3.43,1.42,1.4Zm6.76-6.86-1.42-1.4,3.38-3.43,1.42,1.4Zm6.76-6.86-1.42-1.4,3.38-3.43,1.42,1.4Zm6.76-6.86-1.42-1.4,3.38-3.43,1.42,1.4Zm6.76-6.86-1.42-1.4,3.38-3.43,1.42,1.4Z" transform="translate(9.52 9.52)"/><polygon class="cls-4" points="433.05 457.81 428.61 457.17 431.76 453.98 433.18 455.38 432.81 455.75 433.33 455.83 433.05 457.81"/><path class="cls-4" d="M495.52,458.69l-5.14-.74.29-2,5.14.74Zm-10.29-1.49-5.14-.74.29-2,5.14.74Zm-10.29-1.49-5.14-.74.29-2,5.14.74Zm-10.29-1.49-5.14-.74.29-2,5.14.74Zm-10.29-1.49-5.14-.74.29-2,5.14.74Zm-10.29-1.49-5.14-.74.29-2,5.14.74Zm-10.28-1.49-5.14-.74.29-2,5.14.74Z" transform="translate(9.52 9.52)"/><polygon class="cls-4" points="514.7 469.61 510.19 468.96 510.47 466.98 510.91 467.04 510.69 466.66 512.42 465.66 514.7 469.61"/><path class="cls-4" d="M498.69,452.85l-2.47-4.29,1.73-1,2.47,4.29Zm-4.94-8.57L491.28,440l1.73-1,2.47,4.29Zm-4.94-8.57-2.47-4.29,1.73-1,2.47,4.29Zm-4.94-8.57-2.47-4.28,1.73-1,2.47,4.28Zm-4.94-8.57-2.47-4.28,1.73-1,2.47,4.28ZM474,410l-2.47-4.29,1.73-1,2.47,4.29Z" transform="translate(9.52 9.52)"/><polygon class="cls-4" points="512.16 362.6 510.53 361.44 511.13 360.6 510.13 360.36 510.62 358.42 514.47 359.37 512.16 362.6"/><path class="cls-4" d="M473.8,393.3l-1.62-1.17,2.88-4,1.63,1.17Zm5.77-8-1.62-1.17,2.88-4,1.62,1.17Zm5.77-8L483.71,376l2.88-4,1.63,1.17Zm5.77-8L489.48,368l2.88-4,1.62,1.17Zm5.77-8L495.24,360l2.88-4,1.63,1.17Z" transform="translate(9.52 9.52)"/><polygon class="cls-4" points="477.95 410.32 476.28 406.38 478.12 405.6 478.4 406.26 478.82 405.68 480.44 406.84 477.95 410.32"/><path class="cls-4" d="M464.83,392.32l-1.93-4.54,1.84-.78,1.93,4.54ZM461,383.24,459,378.7l1.84-.78,1.93,4.54Zm-3.86-9.08-1.93-4.54,1.84-.78,1.93,4.54Zm-3.86-9.08-1.93-4.54,1.84-.78,1.93,4.54ZM449.4,356l-1.93-4.54,1.84-.78,1.93,4.54Zm-3.86-9.08-1.93-4.54,1.84-.78,1.93,4.54Z" transform="translate(9.52 9.52)"/><polygon class="cls-4" points="451.2 347.38 449.44 343.23 453.82 344.32 453.33 346.26 452.85 346.14 453.05 346.6 451.2 347.38"/><path class="cls-4" d="M495.45,349.55l-5.16-1.28.48-1.94,5.16,1.28ZM485.12,347,480,345.71l.48-1.94L485.6,345Zm-10.33-2.56-5.16-1.28.48-1.94,5.16,1.28Zm-10.33-2.56-5.16-1.28.48-1.94,5.16,1.28Zm-10.33-2.56L449,338l.48-1.94,5.16,1.28Z" transform="translate(9.52 9.52)"/><polygon class="cls-4" points="431.53 457.58 428.1 457.12 428.37 455.13 429.9 455.34 430.18 453.82 432.15 454.18 431.53 457.58"/><path class="cls-4" d="M423.55,439.57l-2-.36.93-5.09,2,.36Zm1.86-10.18-2-.36.93-5.09,2,.36Zm1.86-10.18-2-.36.93-5.09,2,.36ZM429.14,409l-2-.36.93-5.09,2,.36ZM431,398.86l-2-.36.93-5.09,2,.36Zm1.86-10.18-2-.36.93-5.09,2,.36Zm1.86-10.18-2-.36.93-5.09,2,.36Zm1.86-10.18-2-.36.93-5.09,2,.36Zm1.86-10.18-2-.36.93-5.09,2,.36ZM440.3,348l-2-.36.93-5.09,2,.36Z" transform="translate(9.52 9.52)"/><polygon class="cls-4" points="451.68 347.32 450.72 347.15 450.6 347.32 450.2 347.05 449.72 346.97 449.75 346.76 448.94 346.22 453.01 340.06 451.68 347.32"/><path class="cls-4" d="M377,434.77l-1.67-1.1,2.67-4,1.67,1.1Zm5.34-8.08-1.67-1.1,2.67-4,1.67,1.1Zm5.34-8.08L386,417.5l2.67-4,1.67,1.1Zm5.34-8.08-1.67-1.1,2.67-4,1.67,1.1Zm5.34-8.08-1.67-1.1,2.67-4,1.67,1.1Zm5.34-8.08-1.67-1.1,2.67-4,1.67,1.1Zm5.34-8.08-1.67-1.1,2.67-4,1.67,1.1Zm5.34-8.08-1.67-1.1,2.67-4,1.67,1.1Zm5.34-8.08L418,369l2.67-4,1.67,1.1Zm5.34-8.08-1.67-1.1,2.67-4,1.67,1.1Zm5.34-8.08-1.67-1.1,2.67-4,1.67,1.1Zm5.34-8.08-1.67-1.1,2.67-4,1.67,1.1Z" transform="translate(9.52 9.52)"/><path class="cls-4" d="M413.67,446.94l-4.91-.66.27-2,4.91.66Zm-9.81-1.32L399,445l.27-2,4.91.66ZM394,444.3l-4.91-.66.27-2,4.91.66ZM384.24,443l-4.91-.66.27-2,4.91.66Z" transform="translate(9.52 9.52)"/><polygon class="cls-4" points="367.22 516.3 368.32 510.83 369.86 511.14 369.96 511.05 370.09 511.19 370.28 511.22 370.25 511.36 371.32 512.52 367.22 516.3"/><path class="cls-4" d="M365.68,499.42l-1.36-1.47,3.88-3.58,1.36,1.47Zm7.76-7.15-1.36-1.47,3.88-3.58,1.36,1.47Zm7.76-7.15-1.36-1.47,3.88-3.58,1.36,1.47ZM389,478l-1.36-1.47,3.88-3.58,1.36,1.47Zm7.76-7.15-1.36-1.47,3.88-3.58,1.36,1.47Zm7.76-7.15-1.36-1.47,3.88-3.58,1.36,1.47Zm7.76-7.15L410.91,455l3.88-3.58,1.36,1.47Z" transform="translate(9.52 9.52)"/><polygon class="cls-4" points="429.55 458.89 428.2 457.42 428.47 457.17 428.1 457.12 428.37 455.13 432.96 455.75 429.55 458.89"/><path class="cls-4" d="M413.67,446.94l-4.91-.66.27-2,4.91.66Zm-9.81-1.32L399,445l.27-2,4.91.66ZM394,444.3l-4.91-.66.27-2,4.91.66ZM384.24,443l-4.91-.66.27-2,4.91.66Z" transform="translate(9.52 9.52)"/><path class="cls-4" d="M361.66,497.18l-2-.39.91-4.52,2,.39Zm1.82-9-2-.39.91-4.52,2,.39Zm1.82-9-2-.39.91-4.52,2,.39Zm1.82-9-2-.39.91-4.52,2,.39Zm1.82-9-2-.39.91-4.52,2,.39Zm1.82-9-2-.39.91-4.52,2,.39Z" transform="translate(9.52 9.52)"/><polygon class="cls-4" points="305.94 514.78 303.38 512.62 304.68 511.1 305.94 512.17 307.21 511.1 308.5 512.63 305.94 514.78"/><path class="cls-4" d="M302.75,499.93l-1.29-1.53,3.78-3.18,1.29,1.53Zm7.56-6.36L309,492l3.78-3.18,1.29,1.53Zm7.56-6.36-1.29-1.53,3.78-3.18,1.29,1.53Zm7.56-6.36-1.29-1.53,3.78-3.18,1.29,1.53ZM333,474.5,331.71,473l3.78-3.18,1.29,1.53Zm7.56-6.36-1.29-1.53,3.78-3.18,1.29,1.53Zm7.56-6.36-1.29-1.53,3.78-3.18,1.29,1.53Zm7.56-6.36-1.29-1.53,3.78-3.18,1.29,1.53Zm7.56-6.36L362,447.54l3.78-3.18L367,445.9Z" transform="translate(9.52 9.52)"/><path class="cls-4" d="M361.66,497.18l-2-.39.91-4.52,2,.39Zm1.82-9-2-.39.91-4.52,2,.39Zm1.82-9-2-.39.91-4.52,2,.39Zm1.82-9-2-.39.91-4.52,2,.39Zm1.82-9-2-.39.91-4.52,2,.39Zm1.82-9-2-.39.91-4.52,2,.39Z" transform="translate(9.52 9.52)"/><polygon class="cls-4" points="369.62 514.48 366.3 514.48 366.3 512.48 367.99 512.48 368.32 510.83 370.28 511.22 369.62 514.48"/><path class="cls-4" d="M351.88,505H347v-2h4.9Zm-9.8,0h-4.9v-2h4.9Zm-9.8,0h-4.9v-2h4.9Zm-9.8,0h-4.9v-2h4.9Zm-9.8,0h-4.9v-2h4.9Zm-9.8,0H298v-2h4.9Zm-9.8,0h-4.9v-2h4.9Zm-9.8,0h-4.9v-2h4.9Zm-9.8,0h-4.9v-2h4.9Zm-9.8,0h-4.9v-2h4.9Zm-9.8,0H249v-2h4.9Zm-9.8,0h-4.9v-2h4.9Zm-9.8,0h-4.9v-2h4.9Zm-9.8,0h-4.9v-2h4.9Z" transform="translate(9.52 9.52)"/><polygon class="cls-4" points="224.22 514.48 220.08 514.48 221.96 510.79 223.74 511.7 223.35 512.48 224.22 512.48 224.22 514.48"/><path class="cls-4" d="M216.32,498.06l-1.78-.91,2.1-4.12,1.78.91Zm4.2-8.24-1.78-.91,2.1-4.12,1.78.91Zm4.2-8.24-1.78-.91,2.1-4.12,1.78.91Zm4.2-8.24-1.78-.91,2.1-4.12,1.78.91Zm4.2-8.24-1.78-.91,2.1-4.12,1.78.91Z" transform="translate(9.52 9.52)"/><polygon class="cls-4" points="246.85 466.39 245.07 465.48 246.78 462.13 249.65 464.56 248.36 466.09 247.41 465.29 246.85 466.39"/><path class="cls-4" d="M290.19,500l-3.67-3.1,1.29-1.53,3.67,3.1Zm-7.34-6.21-3.67-3.1,1.29-1.53,3.67,3.1Zm-7.34-6.2-3.67-3.1,1.29-1.53,3.67,3.1Zm-7.34-6.21-3.67-3.1,1.29-1.53,3.67,3.1Zm-7.34-6.21-3.67-3.1,1.29-1.53,3.67,3.1Zm-7.34-6.2-3.67-3.1,1.29-1.53,3.67,3.1Zm-7.34-6.21-3.67-3.1,1.29-1.53,3.67,3.1Z" transform="translate(9.52 9.52)"/><polygon class="cls-4" points="145.03 514.68 142.73 512.46 144.11 511.02 145.41 512.27 147.03 511.48 147.91 513.28 145.03 514.68"/><path class="cls-4" d="M143,501.49l-.88-1.8,4.64-2.27.88,1.8Zm9.27-4.53-.88-1.8,4.64-2.27.88,1.8Zm9.27-4.53-.88-1.8,4.64-2.26.88,1.8Zm9.27-4.53-.88-1.8,4.64-2.26.88,1.8Zm9.27-4.53-.88-1.8,4.64-2.27.88,1.8Zm9.27-4.53-.88-1.8,4.64-2.27.88,1.8Zm9.27-4.53-.88-1.8,4.64-2.26.88,1.8Zm9.27-4.53-.88-1.8,4.64-2.27.88,1.8Zm9.27-4.53-.88-1.8,4.64-2.27.88,1.8Zm9.27-4.53-.88-1.8,4.64-2.27.88,1.8Z" transform="translate(9.52 9.52)"/><polygon class="cls-4" points="246.85 466.39 245.4 465.65 245.29 465.7 245.21 465.56 245.07 465.48 245.12 465.37 244.41 463.91 249.34 461.5 246.85 466.39"/><path class="cls-4" d="M216.32,498.06l-1.78-.91,2.1-4.12,1.78.91Zm4.2-8.24-1.78-.91,2.1-4.12,1.78.91Zm4.2-8.24-1.78-.91,2.1-4.12,1.78.91Zm4.2-8.24-1.78-.91,2.1-4.12,1.78.91Zm4.2-8.24-1.78-.91,2.1-4.12,1.78.91Z" transform="translate(9.52 9.52)"/><polygon class="cls-4" points="222.33 514.48 219.22 514.48 219.22 512.48 221.1 512.48 221.96 510.79 223.74 511.7 222.33 514.48"/><path class="cls-4" d="M204.53,505h-5.16v-2h5.16Zm-10.32,0h-5.16v-2h5.16Zm-10.32,0h-5.16v-2h5.16Zm-10.32,0h-5.16v-2h5.16Zm-10.32,0h-5.16v-2h5.16Zm-10.32,0h-5.16v-2h5.16Zm-10.32,0h-5.16v-2h5.16Zm-10.32,0h-5.16v-2h5.16ZM122,505h-5.16v-2H122Zm-10.32,0h-5.16v-2h5.16Zm-10.32,0H96.17v-2h5.16ZM91,505H85.84v-2H91Zm-10.32,0H75.52v-2h5.16Z" transform="translate(9.52 9.52)"/><polygon class="cls-4" points="79.89 514.48 76.17 514.48 76.88 510.83 78.85 511.21 78.6 512.48 79.89 512.48 79.89 514.48"/><path class="cls-4" d="M70.2,497.22l-2-.38.87-4.47,2,.38Zm1.74-8.94-2-.38.87-4.47,2,.38Zm1.74-8.94-2-.38.87-4.47,2,.38Zm1.74-8.94-2-.38.87-4.47,2,.38Zm1.74-8.94-2-.38.87-4.47,2,.38Z" transform="translate(9.52 9.52)"/><polygon class="cls-4" points="88.44 462.03 86.47 461.65 86.5 461.54 86.4 461.6 85.3 459.93 89.37 457.24 88.44 462.03"/><path class="cls-4" d="M3.44,500.7,2.33,499l4.08-2.7L7.52,498Zm8.16-5.4-1.1-1.67,4.08-2.7,1.1,1.67Zm8.16-5.4-1.1-1.67,4.08-2.7,1.1,1.67Zm8.16-5.4-1.1-1.67,4.08-2.7,1.1,1.67Zm8.16-5.4L35,477.42l4.08-2.7,1.1,1.67Zm8.16-5.4L43.13,472l4.08-2.7,1.1,1.67Zm8.16-5.4-1.1-1.67,4.08-2.7,1.1,1.67Zm8.16-5.4-1.1-1.67,4.08-2.7,1.1,1.67Zm8.16-5.4-1.1-1.67,4.08-2.7,1.1,1.67Z" transform="translate(9.52 9.52)"/><polygon class="cls-4" points="5.25 515.34 5.25 510.98 7.25 510.98 7.25 511.61 7.78 511.26 8.88 512.93 5.25 515.34"/><path class="cls-4" d="M-2.28,496.12h-2v-5.33h2Zm0-10.66h-2v-5.33h2Zm0-10.66h-2v-5.33h2Zm0-10.66h-2v-5.33h2Zm0-10.66h-2v-5.33h2Z" transform="translate(9.52 9.52)"/><polygon class="cls-4" points="7.25 452.37 5.25 452.37 5.25 449.37 7.63 447.56 8.84 449.15 7.25 450.36 7.25 452.37"/><path class="cls-4" d="M3.16,436.7,2,435.1l3.85-2.93L7,433.77Zm7.69-5.86-1.21-1.59,3.85-2.93,1.21,1.59ZM18.55,425l-1.21-1.59,3.85-2.93,1.21,1.59Zm7.69-5.86L25,417.53l3.85-2.93,1.21,1.59Zm7.69-5.86-1.21-1.59,3.85-2.93,1.21,1.59Zm7.69-5.86-1.21-1.59,3.85-2.93,1.21,1.59Zm7.69-5.86L48.12,400,52,397l1.21,1.59ZM57,395.7l-1.21-1.59,3.85-2.93,1.21,1.59Zm7.69-5.86-1.21-1.59,3.85-2.93,1.21,1.59Z" transform="translate(9.52 9.52)"/><polygon class="cls-4" points="81.94 393.51 80.72 391.92 80.82 391.84 80.7 391.82 80.99 389.85 85.82 390.56 81.94 393.51"/><path class="cls-4" d="M66.37,381.59l-4.81-.71.29-2,4.81.71Zm-9.62-1.42-4.81-.71.29-2,4.81.71Zm-9.62-1.42-4.81-.71.29-2,4.81.71Zm-9.62-1.42-4.81-.71.29-2,4.81.71Zm-9.62-1.42-4.81-.71.29-2,4.81.71Zm-9.62-1.42-4.81-.71.29-2,4.81.71ZM8.67,373.1l-4.81-.71.29-2,4.81.71Z" transform="translate(9.52 9.52)"/><polygon class="cls-4" points="7.36 382.31 3.3 378.41 8.86 379.23 8.64 380.77 8.74 380.87 8.6 381.01 8.57 381.21 8.43 381.19 7.36 382.31"/><path class="cls-4" d="M129.54,499.42l-3.66-3.52,1.39-1.44,3.66,3.52Zm-7.32-7-3.66-3.52,1.39-1.44,3.66,3.52Zm-7.32-7-3.66-3.52,1.39-1.44,3.66,3.52Zm-7.32-7-3.66-3.52,1.39-1.44,3.66,3.52Zm-7.32-7-3.66-3.52L98,466.32l3.66,3.52Zm-7.32-7-3.66-3.52,1.39-1.44,3.66,3.52Zm-7.32-7L82,453.69l1.39-1.44L87,455.77Zm-7.32-7-3.66-3.52L76,445.21l3.66,3.52Zm-7.32-7-3.66-3.52,1.39-1.44,3.66,3.52Zm-7.32-7L60,432.59l1.39-1.44,3.66,3.52Zm-7.32-7-3.66-3.52,1.39-1.44,3.66,3.52Zm-7.32-7-3.66-3.52,1.39-1.44,3.66,3.52Zm-7.32-7-3.66-3.52L39.46,410l3.66,3.52Zm-7.32-7-3.66-3.52L32.15,403l3.66,3.52Zm-7.32-7-3.66-3.52L24.83,396l3.66,3.52Zm-7.32-7-3.66-3.52,1.39-1.44,3.66,3.52Zm-7.32-7-3.66-3.52,1.39-1.44,3.66,3.52Zm-7.32-7L1.49,376.3l1.39-1.44,3.66,3.52Z" transform="translate(9.52 9.52)"/><rect class="cls-4" x="-3.04" y="439.24" width="2" height="2.5" transform="translate(-429.79 396.88) rotate(-83.34)"/><path class="cls-4" d="M70.7,450l-5.11-.6.23-2,5.11.6Zm-10.23-1.19-5.11-.6.23-2,5.11.6Zm-10.23-1.19-5.11-.6.23-2,5.11.6ZM40,446.39l-5.11-.6.23-2,5.11.6ZM29.78,445.2l-5.11-.6.23-2,5.11.6ZM19.55,444l-5.11-.6.23-2,5.11.6ZM9.32,442.82l-5.11-.6.23-2,5.11.6Z" transform="translate(9.52 9.52)"/><polygon class="cls-4" points="89.01 460.52 85.34 460.09 85.57 458.1 86.86 458.25 86.77 456.96 88.76 456.82 89.01 460.52"/><path class="cls-4" d="M76.92,442.57l-.33-4.86,2-.13.33,4.86Zm-.66-9.72L75.93,428l2-.13.33,4.86Zm-.66-9.72-.33-4.86,2-.13.33,4.86Zm-.66-9.72-.33-4.86,2-.13.33,4.86Zm-.66-9.72L74,398.82l2-.13.33,4.86Z" transform="translate(9.52 9.52)"/><polygon class="cls-4" points="82.49 393.76 82.15 388.74 85.83 392.17 84.49 393.62 84.49 393.63 84.47 393.63 84.46 393.63 82.49 393.76"/><path class="cls-4" d="M137.88,442.71l-3.5-3.25,1.36-1.46,3.5,3.25Zm-7-6.51-3.5-3.25,1.36-1.46,3.5,3.25Zm-7-6.51-3.5-3.26,1.36-1.46,3.5,3.26Zm-7-6.51-3.5-3.26,1.36-1.46,3.5,3.26Zm-7-6.51-3.5-3.26,1.36-1.46,3.5,3.26Zm-7-6.51-3.5-3.26,1.36-1.46,3.5,3.26Zm-7-6.51-3.5-3.26,1.36-1.46,3.5,3.26Zm-7-6.51-3.5-3.26,1.36-1.46,3.5,3.26Zm-7-6.51-3.5-3.26,1.36-1.46,3.5,3.26Z" transform="translate(9.52 9.52)"/><polygon class="cls-4" points="154.04 459.08 152.06 458.79 152.34 456.83 150.9 455.49 152.26 454.02 154.47 456.08 154.04 459.08"/><path class="cls-4" d="M137.72,496.89l-2-.29.68-4.73,2,.29Zm1.36-9.47-2-.29.68-4.73,2,.29Zm1.36-9.47-2-.28.68-4.73,2,.28Zm1.36-9.47-2-.29.68-4.73,2,.29Zm1.36-9.47-2-.29.68-4.73,2,.29Z" transform="translate(9.52 9.52)"/><rect class="cls-4" x="134.63" y="501.71" width="2.5" height="2" transform="matrix(0.14, -0.99, 0.99, 0.14, -371.55, 575.04)"/><rect class="cls-4" x="78.41" y="448.81" width="2.5" height="2" transform="translate(-10.39 13.51) rotate(-2.55)"/><path class="cls-4" d="M85.61,450.54l-.09-2,4.65-.21.09,2Zm9.3-.42-.09-2,4.65-.21.09,2Zm9.3-.42-.09-2,4.65-.21.09,2Zm9.3-.42-.09-2,4.65-.21.09,2Zm9.3-.42-.09-2,4.65-.21.09,2Zm9.3-.42-.09-2,4.65-.21.09,2Z" transform="translate(9.52 9.52)"/><rect class="cls-4" x="141.39" y="445.99" width="2.5" height="2" transform="translate(-10.2 16.31) rotate(-2.55)"/><polygon class="cls-4" points="5.25 383.12 5.25 377.35 6.73 377.35 6.82 377.22 7.01 377.35 7.25 377.35 7.25 377.51 8.47 378.34 5.25 383.12"/><path class="cls-4" d="M1.56,364.95l-1.66-1.12L2.52,360l1.66,1.12Zm5.23-7.74-1.66-1.12,2.61-3.87,1.66,1.12ZM12,349.48l-1.66-1.12L13,344.49l1.66,1.12Zm5.23-7.74-1.66-1.12,2.61-3.87,1.66,1.12ZM22.46,334l-1.66-1.12L23.42,329l1.66,1.12Zm5.22-7.74L26,325.15l2.61-3.87,1.66,1.12Zm5.23-7.74-1.66-1.12,2.61-3.87,1.66,1.12Z" transform="translate(9.52 9.52)"/><polygon class="cls-4" points="47.66 320.32 46 319.2 46.88 317.91 45.64 316.95 46.86 315.37 49.59 317.47 47.66 320.32"/><path class="cls-4" d="M23.44,297.66l-4.23-3.26,1.22-1.58,4.23,3.26ZM15,291.14l-4.23-3.26L12,286.3l4.23,3.26Zm-8.45-6.52-4.23-3.26,1.22-1.58L7.76,283Z" transform="translate(9.52 9.52)"/><polygon class="cls-4" points="7.25 287.81 5.25 287.81 5.25 283.27 8.84 286.04 7.61 287.63 7.25 287.34 7.25 287.81"/><path class="cls-4" d="M-2.28,362.56h-2V357.3h2Zm0-10.53h-2v-5.27h2Zm0-10.54h-2v-5.27h2Zm0-10.53h-2v-5.27h2Zm0-10.54h-2v-5.27h2Zm0-10.53h-2v-5.27h2Zm0-10.54h-2v-5.27h2Zm0-10.53h-2v-5.27h2Z" transform="translate(9.52 9.52)"/><polygon class="cls-4" points="47.26 242.75 45.8 241.39 46.88 240.23 45.82 239.05 47.31 237.72 49.59 240.26 47.26 242.75"/><path class="cls-4" d="M2.67,270.87,1.2,269.51l3.51-3.76,1.46,1.36Zm7-7.53L8.22,262l3.51-3.76,1.46,1.36Zm7-7.53-1.46-1.36,3.51-3.76,1.46,1.36Zm14-15.06-1.46-1.36,3.51-3.76L34.23,237Z" transform="translate(9.52 9.52)"/><polygon class="cls-4" points="5.25 287.85 5.25 282.81 7.25 282.82 8.68 284.16 5.25 287.85"/><path class="cls-4" d="M-2.28,268.18h-2v-5.11h2Zm0-10.22h-2v-5.11h2Zm0-10.22h-2v-5.11h2Zm0-10.22h-2v-5.11h2Zm0-10.22h-2v-5.11h2Zm0-10.22h-2V212h2Zm0-10.22h-2v-5.11h2Zm0-10.22h-2v-5.11h2Z" transform="translate(9.52 9.52)"/><polygon class="cls-4" points="7.17 195.97 7.14 195.94 5.25 195.94 5.25 190.83 8.66 194.63 7.17 195.97"/><path class="cls-4" d="M32.78,225.61l-3.51-3.92,1.49-1.34,3.51,3.92Zm-7-7.83-3.51-3.92,1.49-1.34,3.51,3.92Zm-7-7.83L15.21,206l1.49-1.34,3.51,3.92Zm-7-7.83L8.19,198.2l1.49-1.34,3.51,3.92Zm-7-7.83-3.51-3.92L2.65,189l3.51,3.92Z" transform="translate(9.52 9.52)"/><polygon class="cls-4" points="7.17 195.97 4.45 192.93 8.36 191.77 8.93 193.68 8.04 193.95 8.66 194.63 7.17 195.97"/><path class="cls-4" d="M4.57,182.62,4,180.7l5.17-1.54.57,1.92Zm10.34-3.09-.57-1.92,5.17-1.54.57,1.92Zm10.34-3.09-.57-1.92L29.85,173l.57,1.92Zm10.34-3.09L35,171.44l5.17-1.54.57,1.92Zm10.34-3.09-.57-1.92,5.17-1.54.57,1.92Z" transform="translate(9.52 9.52)"/><polygon class="cls-4" points="68.13 177.72 66.22 177.14 66.41 176.52 65.79 176.71 65.22 174.79 69.39 173.55 68.13 177.72"/><path class="cls-4" d="M41.79,224l-1.92-.58,1.4-4.65,1.91.58Zm2.8-9.3-1.92-.58,1.4-4.65L46,210Zm2.8-9.3-1.91-.58,1.4-4.65,1.92.58Zm2.8-9.3-1.91-.58,1.4-4.65,1.92.58Zm2.8-9.3-1.91-.58,1.4-4.65,1.92.58Zm2.8-9.3-1.91-.58,1.4-4.65,1.91.58Z" transform="translate(9.52 9.52)"/><polygon class="cls-4" points="48.67 242.24 45.82 239.05 47.31 237.72 47.79 238.25 48 237.56 49.91 238.14 48.67 242.24"/><path class="cls-4" d="M32.78,225.61l-3.51-3.92,1.49-1.34,3.51,3.92Zm-7-7.83-3.51-3.92,1.49-1.34,3.51,3.92Zm-7-7.83L15.21,206l1.49-1.34,3.51,3.92Zm-7-7.83L8.19,198.2l1.49-1.34,3.51,3.92Zm-7-7.83-3.51-3.92L2.65,189l3.51,3.92Z" transform="translate(9.52 9.52)"/><circle class="cls-4" cx="88.01" cy="63.61" r="6.25"/><circle class="cls-4" cx="41.04" cy="110.72" r="6.25"/><circle class="cls-4" cx="57.77" cy="6.25" r="6.25"/><circle class="cls-4" cx="6.25" cy="51.4" r="6.25"/><circle class="cls-4" cx="150.24" cy="6.25" r="6.25"/><circle class="cls-4" cx="213.42" cy="6.25" r="6.25"/><circle class="cls-4" cx="297.33" cy="6.25" r="6.25"/><circle class="cls-4" cx="373.51" cy="6.25" r="6.25"/><circle class="cls-4" cx="431.11" cy="61.8" r="6.25"/><circle class="cls-4" cx="441.85" cy="6.25" r="6.25"/><circle class="cls-4" cx="512.8" cy="6.25" r="6.25"/><circle class="cls-4" cx="512.8" cy="139.87" r="6.25"/><circle class="cls-4" cx="472.13" cy="100.85" r="6.25"/><circle class="cls-4" cx="512.8" cy="70.5" r="6.25"/><circle class="cls-4" cx="511.87" cy="234.41" r="6.25"/><circle class="cls-4" cx="512.8" cy="326.28" r="6.25"/><circle class="cls-4" cx="512.8" cy="359.99" r="6.25"/><circle class="cls-4" cx="479.41" cy="408.29" r="6.25"/><circle class="cls-4" cx="512.8" cy="468.32" r="6.25"/><circle class="cls-4" cx="368.8" cy="512.8" r="6.25"/><circle class="cls-4" cx="77.94" cy="512.8" r="6.25"/><circle class="cls-4" cx="7.75" cy="512.8" r="6.25"/><circle class="cls-4" cx="87.93" cy="460.37" r="6.25"/><circle class="cls-4" cx="46.85" cy="419.29" r="6.25"/><circle class="cls-4" cx="6.25" cy="379.85" r="6.25"/><circle class="cls-4" cx="6.25" cy="285.31" r="6.25"/><circle class="cls-4" cx="6.25" cy="193.44" r="6.25"/><circle class="cls-4" cx="6.25" cy="160.41" r="6.25"/><circle class="cls-4" cx="6.25" cy="449.01" r="6.25"/></g><circle class="cls-5" cx="259.52" cy="259.52" r="227.26"/></g><g id="OBJECTS"><path class="cls-6" d="M373.81,283.78a5.39,5.39,0,0,1,.59,2.48,4.17,4.17,0,0,0,6.16,3.85,7.13,7.13,0,0,0,3.84-6.75c-.28-2.7-2-4.48-4.39-4.33-1.61.1-3-.1-3.77-1.69s.16-2.79,1.11-4c2.4-3.08,5.28-5.7,7.88-8.59,1-1.08,1-1.93,0-3-2.88-3-5.7-6.1-8.61-9.08-2-2-3.63-1.63-4.59,1a5.4,5.4,0,0,0-.37,2.52c.53,4-3.57,7.5-8.36,5.43a10.78,10.78,0,0,1-5.2-4.81,6,6,0,0,1,5.47-9.21A2.54,2.54,0,0,0,366,246c.45-.87.95-1.86.23-2.73a22.63,22.63,0,0,0-2.32-2.71c-2.66-2.35-5.5-4.47-8.3-6.64-1.07-.83-1.6-.81-2.42.35-1.77,2.51-3.31,5.22-5.8,7.17a3.41,3.41,0,0,1-4,.28,4.33,4.33,0,0,1-2.09-3.17,4.43,4.43,0,0,0-6.62-2.84,9.08,9.08,0,0,0-3.48,3.93c-1.34,2.89.24,5.34,3.41,5.41a3.54,3.54,0,0,1,3.58,4.72,8.12,8.12,0,0,1-2,3.38A79.43,79.43,0,0,1,325,263c-1.16.89-1.16,1.34.15,2a29.91,29.91,0,0,1,6.65,4.19c1.19,1,2,2.22,1.56,3.9a4.17,4.17,0,0,1-3.34,3.08,4.5,4.5,0,0,0-2.54,7.48,9,9,0,0,0,3.34,2.63c3,1.35,5.44-.22,5.46-3.49a3.4,3.4,0,0,1,4-3.6,6.13,6.13,0,0,1,2.85,1.11,53.56,53.56,0,0,1,8.41,7.29c2.29,2.07,4.61,4.11,6.86,6.22.83.78,1.34.81,2-.2,1.22-1.87,2.47-3.72,3.85-5.46a40.2,40.2,0,0,1,4.35-5.29C370.49,281.08,372.61,281.51,373.81,283.78Z" transform="translate(9.52 9.52)"/><path class="cls-7" d="M391.66,348.12s2.42-36.45,29.47-34.54,11.8,32.23,11.8,32.23-9.48,29.77-40,5" transform="translate(9.52 9.52)"/><path class="cls-8" d="M387.32,500V441.12s-22.95-18.54-22.95-59.18S337.28,295.41,342.12,288s20.58,4.95,29.57,27.85,10.91,37.73,34.18,36.55S426,319.32,416.1,306.7,376.15,260,374.83,247s1.27-20.52,14.18-4.73,83.14,78.91,81.17,110.87-28.8,88-28.8,88V500Z" transform="translate(9.52 9.52)"/><rect class="cls-9" x="380.33" y="470.02" width="87.25" height="39.5"/><rect class="cls-10" x="371.85" y="463.59" width="104.22" height="26.18" rx="10.77" ry="10.77"/><circle class="cls-9" cx="385.91" cy="476.3" r="7.72"/><path class="cls-7" d="M341.54,291s1.88-3,6.4,0,6.31,8.83,6.31,8.83-4.32,4.85-9.52,3.85C341.54,298.37,341.54,291,341.54,291Z" transform="translate(9.52 9.52)"/><path class="cls-7" d="M379.68,233.74s-3.47,7.35,3.05,15.55c2.1,2.1,8.93-4,8.93-4S384.41,234.9,379.68,233.74Z" transform="translate(9.52 9.52)"/><path class="cls-11" d="M280.57,325.39c-.22-4-.37-8-.41-11.88-.41-34.47,55-79.12,55.45-146.42S273.63,53,203,53.42c0,0-80.84-3.69-111.21,69.76-14.36,37.34,3.28,33.24-20.11,59.5s-29.55,43.09-18.88,48,18.47,2.87,18.06,15.59c-2.46,7-11.49,15.59,0,23-7.39,10.67,4.1,18.06,2.87,21.34a37,37,0,0,1-1.64,17.65c-3.28,9-8.21,28.32,20.93,28.32s57.87-9.75,62.38,10a48.24,48.24,0,0,1,1,7.38C154.49,409.5,123.56,500,123.56,500H338.8s-3.88-34.85-25.2-75.42C292.74,384.91,280.74,327.85,280.57,325.39Z" transform="translate(9.52 9.52)"/><path class="cls-6" d="M234.55,211.27a8.18,8.18,0,0,0,.27-1c.83-4.46.31-8.88-.44-13.28-.18-1.06-.83-1.33-1.88-1.14-2.86.53-5.73,1-8.62,1.4-1,.12-1.94.23-2.9.26C220.48,200.85,221,208.38,234.55,211.27Z" transform="translate(9.52 9.52)"/><path class="cls-12" d="M137.69,103.12a52.07,52.07,0,0,0,6.52-.73,1.43,1.43,0,0,0,1.36-1.8c-.17-1.25-.34-2.49-.47-3.74l0-.44" transform="translate(9.52 9.52)"/><path class="cls-12" d="M189.86,179.23c1.25-1.16,2.25-1.08,3.36.21,2.06,2.4,5,2.24,6.82-.39a7.64,7.64,0,0,0,.72-7.22,4.07,4.07,0,0,0-6.42-1.59,22.57,22.57,0,0,1-1.84,1.53,2.6,2.6,0,0,1-4.06-1,7.82,7.82,0,0,1-.86-2.22c-1-4.66-.41-9.36.08-14,.41-3.87.82-3.9-2.95-4.4a66.05,66.05,0,0,0-11.26-.85c-1.76.07-2.42,1.2-1.65,2.8a4.52,4.52,0,0,0,.92,1.22c3.48,3.41,2.21,8.51-2.46,9.86a8.36,8.36,0,0,1-9.13-3.13c-1.75-2.57-1.5-4.62,1-8,.84-1.14.57-2.07-.8-2.47a7.89,7.89,0,0,0-2-.25c-3.49-.07-7,.07-10.45.22-1.73.07-2.23.78-2,2.33.06.39.12.79.15,1.19.26,4.16.86,8.3.22,12.48-.31,2-1.7,2.85-3.44,3.34s-3.24.33-4.46-1.22a4.51,4.51,0,0,0-7.09.18c-1.67,2.25-1.73,6.85-.1,9.12s4,2.61,5.93.91a5.86,5.86,0,0,1,6.67-1.11c2.38,1,2.47,3.2,2.44,5.38a60.11,60.11,0,0,1-.57,7.15,61.24,61.24,0,0,0,16.43.85,17.64,17.64,0,0,0,1.58,5.76c1.74-.79,2-2.21.59-3.8a4.91,4.91,0,0,1,1.6-7.9,9.56,9.56,0,0,1,7.68-.26,5.84,5.84,0,0,1,2.67,8.72c-.74,1.08-1.16,2.15-.5,3.33s1.92,1.15,3.05,1.07a51.71,51.71,0,0,0,7.11-1.06,1.78,1.78,0,0,0,1.63-2.3,48.43,48.43,0,0,1-.35-6.65,22.06,22.06,0,0,1,0-4.3A4.9,4.9,0,0,1,189.86,179.23Z" transform="translate(9.52 9.52)"/><path class="cls-6" d="M221.33,195.9a79.67,79.67,0,0,0,11.36-1.56c1.21-.21,1.5-1.05,1.7-2.06a112.09,112.09,0,0,0,1.72-11.52,16.17,16.17,0,0,0-.22-6.3c-.7-2.23-2.29-2.67-4-1.17a5,5,0,0,1-7.93-1.53,9.67,9.67,0,0,1-.6-6.7,5.9,5.9,0,0,1,9.31-3.54,2.83,2.83,0,0,0,3,.39c1-.52,1.07-1.55,1.1-2.53a63.24,63.24,0,0,0-.58-7.51c-.13-1.46-.82-1.68-2-1.47-2.42.43-4.84.85-7.27,1.21a38.68,38.68,0,0,1-9.4.44,4.89,4.89,0,0,1-4.4-2.81c-.77-1.78,0-3.12,1.25-4.45a3.6,3.6,0,0,0-1.08-5.57,8.37,8.37,0,0,0-4.32-.88c-2,0-4,.43-5,2.39a5.19,5.19,0,0,0,.51,5.78,3.86,3.86,0,0,1-3.09,6.2,19.44,19.44,0,0,1-3.25-.11,43.32,43.32,0,0,1-6.89-1.2c-1.19-.33-1.81,0-1.91,1.38-.24,3.36-.7,6.71-.64,10.08,0,1.26,0,2.51,0,3.77a4.65,4.65,0,0,0,.13.84c.75,3.76,1.61,4.08,4.51,1.65a5.78,5.78,0,0,1,7.77.46c3,3.36,1.84,10.2-2.13,12.34a5,5,0,0,1-6.28-.74c-1.3-1.48-2.26-1.3-2.92.59a6.14,6.14,0,0,0-.34,1.85c-.08,3.43.24,6.85.43,10.27a1.77,1.77,0,0,0,1.84,1.84c3.3.25,6.61.57,9.91.69a11.6,11.6,0,0,0,5.2-.85c1-.43,1.83-1,1.89-2.21a2.6,2.6,0,0,0-1.63-2.42,6.22,6.22,0,0,1-.48-10.19,9.14,9.14,0,0,1,10-.2c3.84,2.76,3.83,7.66.37,9.59a3.14,3.14,0,0,0-.76.69,2.68,2.68,0,0,0,1,4.57,8.1,8.1,0,0,0,3.36.51l.68,0,0-.08Z" transform="translate(9.52 9.52)"/><path class="cls-12" d="M207.58,105.28a2.81,2.81,0,0,0,1.05-3.22C208.2,100.83,207,101,206,101c-4.46.12-8.89.6-13.31,1.11a1.84,1.84,0,0,0-1.85,1.69,50.51,50.51,0,0,0-.74,8.7c0,1.12.18,2.23,1.34,2.77a3,3,0,0,0,3.19-.52,6.13,6.13,0,0,1,9.48,3.13,10.64,10.64,0,0,1,.1,5.92c-1.14,4.69-5.49,6.1-9.15,3a2.12,2.12,0,0,0-3.48.46,5.69,5.69,0,0,0-.82,2.41,138.57,138.57,0,0,0-1.06,18.12c0,1.67.92,2,2.23,2.16l4.7.94a22.35,22.35,0,0,0,4.1.31c1,0,2.15.08,2.68-1.07a3.21,3.21,0,0,0-.47-3.37,6.2,6.2,0,0,1,3.24-9.47,10.21,10.21,0,0,1,7.21.37,5.19,5.19,0,0,1,2,8.37c-1.65,2-1.05,3.8,1.48,4.38a12.29,12.29,0,0,0,2.55.24c4.94.08,9.78-.83,14.62-1.66,1.38-.24,1.6-1,1.45-2.21-.3-2.38-.61-4.76-.82-7.15-.24-2.79-.58-5.6.22-8.35s2.87-3.52,5.38-2.35a10.54,10.54,0,0,1,2.61,1.92,4.21,4.21,0,0,0,7-1.27,9.66,9.66,0,0,0,.33-7.36c-.78-2.56-2.55-3.61-5.23-3.45a4.38,4.38,0,0,0-3.52,2.11,3.9,3.9,0,0,1-3.93,2c-1.82-.31-2.61-1.75-3-3.38a15.46,15.46,0,0,1-.38-3.05,87.89,87.89,0,0,1,.6-13.52c.14-1.14,0-1.93-1.44-1.9-4.28.09-8.57-.21-12.85.27-.85.1-1.78.06-2.16,1.06s.19,1.73.88,2.4a5.28,5.28,0,0,1,1.31,6c-1.62,4.73-8.11,6.94-12.25,4.13a6.26,6.26,0,0,1-2.9-5.86A5,5,0,0,1,207.58,105.28Z" transform="translate(9.52 9.52)"/><path class="cls-12" d="M147.84,120.08c-.51,1.78-2,2.42-3.63,2.75a3.7,3.7,0,0,1-4-1.18,4.45,4.45,0,0,0-7.54.67,8.69,8.69,0,0,0-.73,6.17c.91,4.2,4.23,5.29,7.61,2.68a5.71,5.71,0,0,1,6-.52c1.89.81,2.31,2.48,2.34,4.39a64.52,64.52,0,0,1-.94,11.09c-.22,1.4.12,2.06,1.64,2,1.77-.07,3.54,0,5.31,0a31.78,31.78,0,0,1,7-.08c1.35.17,2.48.62,3,2a3.23,3.23,0,0,1-1.06,3.55,4.38,4.38,0,0,0-.29,6,6.79,6.79,0,0,0,4.72,2.5,5.29,5.29,0,0,0,5.52-2.63c1-2,.75-3-1.33-5.2a4.19,4.19,0,0,1-1.26-4.53c.65-1.78,2.24-1.92,3.84-1.9a94.82,94.82,0,0,1,12.11,1.1c1.74.25,2-.36,2-1.89,0-4.86.24-9.71.67-14.55a16.62,16.62,0,0,1,1-5.2c1.25-2.89,4-3.49,6.33-1.41a3.73,3.73,0,0,0,6-1.06,8.56,8.56,0,0,0,.18-7,4.59,4.59,0,0,0-6.78-2c-1.57,1.14-3.12,1.62-4.94.79s-2.06-2.62-2.13-4.35a43.89,43.89,0,0,1,.68-8c.18-1.24-.14-1.51-1.35-1.28-2.58.5-5.17,1-7.78,1.27a24,24,0,0,1-7.34.15c-3.78-.7-5-3.73-2.65-6.75a3.73,3.73,0,0,0-1.62-5.92,8.36,8.36,0,0,0-3.21-.43c-1.81,0-3.44.46-4.36,2.18a4.65,4.65,0,0,0,.28,5.32,4.08,4.08,0,0,1,.31,4.53c-.75,1.48-2.12,1.76-3.63,1.79a39.28,39.28,0,0,1-8.66-1.07c-1.42-.3-1.85.07-1.66,1.54a73.23,73.23,0,0,1,.57,12A10.59,10.59,0,0,1,147.84,120.08Z" transform="translate(9.52 9.52)"/><path class="cls-12" d="M247.94,76.3a5.86,5.86,0,0,1,.46.86,10.86,10.86,0,0,1,.54,6.41c-.89,4.6-5.6,6.45-9.5,3.81-2.09-1.41-3.88-.57-4,1.95a47.64,47.64,0,0,0,.56,8c.19,1.77,1,2.09,2.62,1.94a65.58,65.58,0,0,1,10.78-.44,4.13,4.13,0,0,1,3.87,2.64,3.84,3.84,0,0,1-1,4.39,3.42,3.42,0,0,0-.8,3.49c.87,3.26,4.49,5.09,8.27,4.12,3.52-.9,4.78-4.67,2.35-7.34-1.45-1.59-1.91-3.21-1-5.15A4.6,4.6,0,0,1,266,98.28c4.67.31,9.36.47,14,.72.88,0,1.71,0,2-.86a24.85,24.85,0,0,0-12-4.95C268.49,89.73,261.49,79.65,247.94,76.3Z" transform="translate(9.52 9.52)"/><path class="cls-12" d="M130.29,148.12a23.85,23.85,0,0,1,3.76-.26c3.14,0,6.28.15,9.42.27,1.06,0,1.75-.25,1.92-1.42a67.12,67.12,0,0,0,1-12.28,2.71,2.71,0,0,0-2.65-2.82,4.47,4.47,0,0,0-3.79,1.12,5.25,5.25,0,0,1-8-.76c-2.41-3-2.3-8.6.22-11.53a5.91,5.91,0,0,1,9,0c1,1.26,2.2,1,3.41.74a2.55,2.55,0,0,0,2.06-2.6,96.2,96.2,0,0,0-.44-13c-.12-1.37-.62-2-2.22-1.7a32.76,32.76,0,0,1-7.18.69,23.35,23.35,0,0,0-2.72,10.64c-15.12,8.43-13.4,25.28-13.4,25.28a35.8,35.8,0,0,0-5.26,7.34c.93,0,1.87-.06,2.81,0,3,.12,4.33,2.45,2.84,5.13a7.09,7.09,0,0,1-1.28,1.59,4.12,4.12,0,0,0,.47,6.58c2.29,1.61,6.35,1.12,8.37-1s2-4.21-.29-7C126.65,151,127.6,148.51,130.29,148.12Z" transform="translate(9.52 9.52)"/><path class="cls-6" d="M189,210.29l.51,0c-.08-3.59-.37-7.16-.61-10.74-.16-2.45-.12-2.44-2.46-1.94a27.22,27.22,0,0,1-8.16.83,3.63,3.63,0,0,1-3.06-5.34,13.35,13.35,0,0,1,.82-1.3,4.52,4.52,0,0,0-2.22-6.56,8.27,8.27,0,0,0-6,.17c-2.58,1-3.15,3.75-1.3,5.87s1.43,4.73-1.16,6C168.11,202.57,174.51,209,189,210.29Z" transform="translate(9.52 9.52)"/><path class="cls-6" d="M220.42,197.48a8.88,8.88,0,0,1-4.27-1,3.92,3.92,0,0,1-1.52-6,7.24,7.24,0,0,1,1.82-1.79,3.72,3.72,0,0,0,1.28-4.71c-1.11-2.74-4.39-4-8-3.11-2.88.71-4.2,2.78-3.91,5.93a3.56,3.56,0,0,0,2.27,2.94,3.81,3.81,0,0,1,2.26,3.57c0,1.7-1.13,2.68-2.52,3.38a9.89,9.89,0,0,1-3.78,1,58.64,58.64,0,0,1-12.13-.58c-1.25-.16-1.65.15-1.55,1.42.25,3.53.41,7.07.61,10.61q0,.61.06,1.22C209.67,211.31,217.87,201.49,220.42,197.48Z" transform="translate(9.52 9.52)"/><path class="cls-12" d="M243.21,75.46q1.06.12,2.07.29a3.69,3.69,0,0,1,1.77,2,9.22,9.22,0,0,1,.16,6.39,4.36,4.36,0,0,1-6.73,2.13c-3.18-2.22-6.18-.87-6.55,3a35.33,35.33,0,0,0,.6,8.36c.2,1.42-.25,1.82-1.61,1.81-4.12,0-8.23-.07-12.34.25-1.62.12-3.14.34-3.81,2.06s.19,2.81,1.33,3.94c1.61,1.59,1.68,3.77.35,5.79a7.31,7.31,0,0,1-9,2.34,4.33,4.33,0,0,1-1-7.33,5.4,5.4,0,0,0,1.78-3.06,2.92,2.92,0,0,0-2.7-3.77c-3.72-.42-7.41.22-11.11.51-1.25.1-2.5.25-3.74.47s-1.72-.34-1.86-1.42a69.65,69.65,0,0,1-.85-12.3,7.6,7.6,0,0,1,.36-2c.6-1.79,1.77-2.24,3.5-1.46a6.49,6.49,0,0,1,1.88,1.46,5.07,5.07,0,0,0,8-.5c1.73-2.26,2.08-6.1,1.12-9.1,5.39-2.42,16.87-6,28.36.21.67-.08,1.33-.15,2-.2A46.41,46.41,0,0,1,243.21,75.46Z" transform="translate(9.52 9.52)"/><path class="cls-6" d="M282.07,117.48a10.08,10.08,0,0,0,1,4.13c.93,1.76,2,1.92,3.47.53a4.4,4.4,0,0,1,7.06.8,10.13,10.13,0,0,1,.24,10.32,5.35,5.35,0,0,1-8.12,1.55,2.23,2.23,0,0,0-2.49-.59,2.34,2.34,0,0,0-1.29,2.4,38.35,38.35,0,0,0,.63,8.19c1,5.28-.25,4.34,5.3,5.23a131.24,131.24,0,0,0,13.28,1.46c2.29.13,3.14-1.17,2.2-3.27a3.93,3.93,0,0,0-1-1.39c-2.24-1.89-2.26-4.24-1.37-6.72a5.88,5.88,0,0,1,4.82-3.94c-1.32-15.86-11.06-18.8-11.06-18.8a42.43,42.43,0,0,0-9.52-16.33l-.23,0c-1.45-.31-2.07.11-2.27,1.6A77.46,77.46,0,0,0,282.07,117.48Z" transform="translate(9.52 9.52)"/><path class="cls-6" d="M251.75,101.87c-.56-1.3-1.71-1.52-3-1.58-3.32-.15-6.62.25-9.93.38-2.19.09-2.56.44-2.72,2.65-.23,3.08-.57,6.15-.6,9.24.09,2,.09,4,.31,6,.12,1.1.39,2.38,1.73,2.71s2.21-.59,3-1.6a6.31,6.31,0,0,1,10.24.28c1.91,2.82,1.92,8.1,0,11a5.62,5.62,0,0,1-8.62,1.26,19,19,0,0,0-1.84-1.53c-2.31-1.47-3.92-.68-4.28,2.07a15.7,15.7,0,0,0-.1,1.71,91,91,0,0,0,.94,12.12c.16,1.37.66,1.76,2.08,1.65,4.55-.35,9.08-1,13.67-.5a4.72,4.72,0,0,1,2.55,8.12,4.41,4.41,0,0,0,1.19,7.49,9.09,9.09,0,0,0,7.18.13c3.06-1.21,3.76-4.35,1.62-6.82a10.59,10.59,0,0,1-1.89-2.83c-1.44-3.48-.06-5.63,3.68-5.7,4.3-.08,8.55.52,12.82.87,2,.16,2,.23,1.68-1.74a58.1,58.1,0,0,1-1-10.73,3.57,3.57,0,0,1,2-3.51,3.74,3.74,0,0,1,4.15.59,3.93,3.93,0,0,0,6.33-1.66,9.75,9.75,0,0,0-.11-7.36c-1.09-2.6-3.46-3-5.45-1a3.06,3.06,0,0,1-5-.28,8.35,8.35,0,0,1-1.59-4.11c-.84-5.32-.2-10.6.45-15.88.31-2.56.15-2.8-2.51-2.92-4.05-.18-8.11-.32-12.15-.6-1.76-.13-3.19.14-4.08,1.79s-.17,2.76.91,4a5.89,5.89,0,0,1-1.14,8.47,8.83,8.83,0,0,1-11-1.58c-1.81-2.17-2-5.32-.36-7.24C251.82,104.14,252.3,103.13,251.75,101.87Z" transform="translate(9.52 9.52)"/><path class="cls-6" d="M305.84,144.39a51.16,51.16,0,0,0,.14-6.72,4.63,4.63,0,0,0-3.08,2c-1.45,2.27-1.21,4.09.79,6.29a6.45,6.45,0,0,1,1,1.39c1.6,3.17,0,5.68-3.53,5.53-1.65-.07-3.31-.17-5-.37-3.63-.44-7.25-1-10.87-1.43-.75-.09-1.94-.54-1.88.93.16,4.11-.62,8.21-.18,12.32.09.84.06,1.81,1.06,2.17s1.61-.27,2.22-.92a4.92,4.92,0,0,1,4.7-1.43c3.09.53,5.36,3,6,6.49.56,3.27-.66,6.13-3.21,7.5s-4.37.86-7.09-1.63a2.67,2.67,0,0,0-2.8-.85c-1.16.43-1,1.52-1,2.49.07,4.24.65,8.43,1.13,12.63a2.29,2.29,0,0,0,2.05,2.16c3.13.67,6.23,1.46,9.38,2a16.33,16.33,0,0,0,6.64.26c2.66-.62,3.29-2.53,1.62-4.69a5.71,5.71,0,0,1,.15-7.27,5.42,5.42,0,0,1,1.16-.93,31.81,31.81,0,0,0-3.69-7.12S314.91,158.44,305.84,144.39Z" transform="translate(9.52 9.52)"/><path class="cls-6" d="M266.3,225.63s8.1,4.18,16.45-.07c-.83-1.53-2.09-1.73-3.37-.52-2.85,2.7-6.73,2-8.23-1.63a10.9,10.9,0,0,1-.22-8,5.81,5.81,0,0,1,8.85-2.89c2.37,1.7,3.92,1,4.29-1.89a8.86,8.86,0,0,0,.1-1.54c-.23-4.62-.38-9.25-.93-13.85-.12-1-.55-1.53-1.61-1.55-4.74-.08-9.49-.31-14.23-.26a25.67,25.67,0,0,0-7.15.66c-2.32.7-2.77,2.25-1.23,4.06a5,5,0,0,1-1.61,7.92,9,9,0,0,1-4,.9c-2.63,0-5.09-.56-6.49-3a6,6,0,0,1,.45-6.91c1.29-1.83.19-3.65-2.08-3.72a30.31,30.31,0,0,0-7.92,1.31c-1.41.34-1.83,1-1.54,2.45a40.77,40.77,0,0,1,.86,10.22,14.34,14.34,0,0,1-1.07,5.35C248.76,236.25,266.3,225.63,266.3,225.63Z" transform="translate(9.52 9.52)"/><path class="cls-12" d="M194.68,75.7a36.94,36.94,0,0,1,7,1.29s.65-.41,1.81-1a8.48,8.48,0,0,1-.61,7c-1.48,2.68-4.05,3-6.23.79-.08-.08-.15-.18-.23-.25-1.43-1.33-3-2.44-5.07-1.76s-2.69,2.69-2.85,4.69a51.65,51.65,0,0,0,.46,9.75c.07.62.12,1.25.23,1.87.59,3.22.45,3-2.77,3.66a92.91,92.91,0,0,1-9.5,1.33,11.17,11.17,0,0,1-4.59-.36c-2-.65-2.54-2.39-1.24-4,2.7-3.28,1.42-7.49-2.67-8.64a9.09,9.09,0,0,0-5.9.15A6.16,6.16,0,0,0,159.64,99a8.27,8.27,0,0,1,.84,1.48,2.12,2.12,0,0,1-1.84,3,36.1,36.1,0,0,1-10.35-1.2,1.5,1.5,0,0,1-1.18-1.49c-.22-1.72-.45-3.43-.66-5.15a26.7,26.7,0,0,1,8.15-2.48s1.94-11.45,20.74-10.8c3.74-4.89,9.34-6.5,14.42-6.78A22.56,22.56,0,0,1,194.68,75.7Z" transform="translate(9.52 9.52)"/><path class="cls-6" d="M295.9,207.48c-3.16,9.47-7.48,14.65-11.84,17.34,0-.08-.09-.17-.14-.25a3.34,3.34,0,0,0-5.5-.68c-2.29,2.2-5,1.62-6-1.36a9.77,9.77,0,0,1-.24-6.23c1-3.3,4.27-4.41,7-2.35a4,4,0,0,0,4.34.54,3.59,3.59,0,0,0,2-3.52,99,99,0,0,0-.61-14c-.28-2.57,0-2.82,2.5-2.16a81.14,81.14,0,0,0,11.1,2.11,12,12,0,0,0,4.43-.24c3.41-.89,4.48-4.15,2.27-6.87a4,4,0,0,1,.5-6l.5.92a2.79,2.79,0,0,0-.74,3.57c1.09,2.29,5.31,6.71-3,9.67C299.14,199.17,295.9,207.48,295.9,207.48Z" transform="translate(9.52 9.52)"/><path class="cls-12" d="M118.52,174.64c8,8.67,18.06,12.65,26.61,14.42a50,50,0,0,0,.47-8.17c-.08-2.11-1-3-3.08-3.08a4.59,4.59,0,0,0-3.44,1.18,5.35,5.35,0,0,1-8.09-1,10.3,10.3,0,0,1-.09-10.72c2.19-3.1,7.09-3.65,9.23-.9a2.9,2.9,0,0,0,3.57,1.1,3,3,0,0,0,2.22-3.08,71.9,71.9,0,0,0-.45-11.47c-.38-3.2.4-3.17-3.53-3.28-.63,0-1.25-.12-1.88-.13-3,0-5.94-.07-8.92,0a2,2,0,0,0-2,1.1c-.35.83.22,1.4.72,2,2.48,2.77,2.43,5.82-.13,8.54-3,3.23-8.65,3.38-11.38.31a5.22,5.22,0,0,1,.3-7.74c1-.87,1.86-1.87,1.36-3.25s-1.91-1-3-1c-.8,0-1.61,0-2.41.07C111.41,156.17,109.74,165.74,118.52,174.64Z" transform="translate(9.52 9.52)"/><path class="cls-12" d="M286,174.57a5.34,5.34,0,0,1,2.07,1.44,4.14,4.14,0,0,0,7.1-1.22,7.07,7.07,0,0,0-1.61-7.53c-2-1.81-4.45-2-6.11-.31-1.12,1.14-2.3,1.92-3.91,1.24s-1.73-2.17-1.83-3.7c-.26-3.86.14-7.71.16-11.56,0-1.44-.55-2.08-1.94-2.19-4.12-.33-8.24-.75-12.37-1-2.83-.2-3.76,1.19-2.71,3.79a5.36,5.36,0,0,0,1.39,2.11c3.05,2.64,2.32,7.91-2.6,9.54a10.69,10.69,0,0,1-7-.12,6,6,0,0,1-2-10.42,2.52,2.52,0,0,0,.68-2.79c-.24-.94-.53-2-1.64-2.17a22.44,22.44,0,0,0-3.51-.47c-3.52,0-7,.33-10.52.57-1.34.09-1.71.46-1.56,1.86.35,3,1,6,.45,9.13a3.38,3.38,0,0,1-2.77,2.85,4.29,4.29,0,0,1-3.64-1,4.4,4.4,0,0,0-6.77,2.27,9,9,0,0,0,0,5.21c.92,3,3.7,3.79,6.1,1.75A3.51,3.51,0,0,1,237.2,173a8.06,8.06,0,0,1,.78,3.79,78.76,78.76,0,0,1-1.85,14.65c-.27,1.42,0,1.76,1.42,1.37a29.66,29.66,0,0,1,7.69-1.29c1.56,0,3,.32,3.73,1.85a4.13,4.13,0,0,1-.44,4.48,4.46,4.46,0,0,0,3.06,7.21,8.93,8.93,0,0,0,4.21-.26c3.09-1,3.88-3.76,1.74-6.19a3.38,3.38,0,0,1,.58-5.3,6.08,6.08,0,0,1,2.84-1.05,53.11,53.11,0,0,1,11-.16c3.06,0,6.12,0,9.18.07,1.13,0,1.53-.29,1.35-1.47-.33-2.18-.63-4.38-.76-6.58a39.85,39.85,0,0,1-.28-6.79C281.75,174.77,283.61,173.68,286,174.57Z" transform="translate(9.52 9.52)"/></g></svg>