<?xml version="1.0" encoding="iso-8859-1"?>
<!-- Generator: Adobe Illustrator 19.0.0, SVG Export Plug-In . SVG Version: 6.00 Build 0)  -->
<svg xmlns="http://www.w3.org/2000/svg" xmlns:xlink="http://www.w3.org/1999/xlink" version="1.1" id="Capa_1" x="0px" y="0px" viewBox="0 0 512 512" style="enable-background:new 0 0 512 512;" xml:space="preserve" width="512px" height="512px">
<g>
	<g>
		<path d="M510.151,232.799c-7.834-46.794-39.993-85.527-83.104-102.92C441.768,116.176,451,96.65,451,75c0-41.355-33.645-75-75-75    c-41.355,0-75,33.645-75,75c0,21.706,9.278,41.278,24.066,54.986c-23.838,9.748-44.293,26.116-59.053,46.817    c-7.672-6.896-16.184-12.544-25.3-16.848C250.211,149.336,256,135.333,256,120c0-33.084-26.916-60-60-60s-60,26.916-60,60    c0,15.353,5.803,29.372,15.322,39.994c-19.17,9.051-35.175,23.735-45.871,41.906c0.361-2.264,0.549-4.568,0.549-6.9    c0-24.872-21.096-45-46-45c-24.813,0-45,20.187-45,45c0,12.309,4.972,23.475,13.007,31.608C10.944,240.367,0,261.425,0,285    c0,11.246,0,201.449,0,212c0,8.284,6.716,15,15,15h482c8.284,0,15-6.716,15-15V255.758    C512,251.745,512.015,236.201,510.151,232.799z M376,30c24.813,0,45,20.187,45,45s-20.187,45-45,45s-45-20.187-45-45    S351.187,30,376,30z M271,255c0-57.897,47.103-105,105-105c46.955,0,86.87,30.402,100.755,72.375l-98.91-12.261    c-5.487-0.681-10.903,1.714-14.095,6.229c-3.192,4.515-3.64,10.42-1.167,15.366l7.683,15.365L271,289.619V255z M196,90    c16.542,0,30,13.458,30,30s-13.458,30-30,30s-30-13.458-30-30S179.458,90,196,90z M121,255c0-41.355,33.645-75,75-75    c20.397,0,39.487,8.082,53.754,22.756c0.41,0.422,0.843,0.806,1.289,1.17C244.576,219.69,241,236.934,241,255v25.921    l-50.025-33.353c-13.404-8.958-30.689-10.037-45.062-2.84L121,257.094V255z M60,180c8.523,0,16,7.009,16,15    c0,7.991-7.477,15-16,15c-8.271,0-15-6.729-15-15S51.729,180,60,180z M30,285c0-24.813,20.187-45,45-45    c5.691,0,11.453,1.034,16.698,2.93C91.242,246.892,91,250.918,91,255v16.985l-61,30.278V285z M91,482H30v-79.154l61-30.299V482z     M241,482H121V357.645l41.747-20.736l68.272,45.519c3.152,2.109,6.506,3.782,9.981,5.017V482z M247.682,357.48l-75.513-50.347    c-4.467-2.978-10.186-3.342-14.994-0.954L30,369.349c0-28.493,0-17.545,0-33.593c19.61-9.734,109.02-54.114,129.298-64.18    c4.799-2.402,10.549-2.045,15.021,0.943l73.272,48.853c0.018,0.012,0.036,0.024,0.054,0.036c2.983,1.989,9.02,6.997,17.385,3.41    l131.677-56.437c3.797-1.627,6.755-4.749,8.176-8.628c1.421-3.879,1.179-8.172-0.668-11.868l-2.278-4.555l70.691,8.763    l-35.638,61.344l-5.899-11.799c-3.552-7.104-12.027-10.208-19.325-7.079c-6.019,2.58-141.423,60.61-149.867,64.229    C257.224,360.797,251.918,360.313,247.682,357.48z M361,482h-90v-94.576c1.995-0.71-4.318,1.952,90-38.47V482z M482,482h-91    V336.097l19.582-8.392l12.002,24.003c5.349,10.699,20.432,11.075,26.387,0.827L482,295.681V482z" fill="#FFFFFF"/>
	</g>
</g>
<g>
</g>
<g>
</g>
<g>
</g>
<g>
</g>
<g>
</g>
<g>
</g>
<g>
</g>
<g>
</g>
<g>
</g>
<g>
</g>
<g>
</g>
<g>
</g>
<g>
</g>
<g>
</g>
<g>
</g>
</svg>
