<?xml version="1.0" encoding="iso-8859-1"?>
<!-- Generator: Adobe Illustrator 16.0.0, SVG Export Plug-In . SVG Version: 6.00 Build 0)  -->
<!DOCTYPE svg PUBLIC "-//W3C//DTD SVG 1.1//EN" "http://www.w3.org/Graphics/SVG/1.1/DTD/svg11.dtd">
<svg xmlns="http://www.w3.org/2000/svg" xmlns:xlink="http://www.w3.org/1999/xlink" version="1.1" id="Capa_1" x="0px" y="0px" width="512px" height="512px" viewBox="0 0 612 612" style="enable-background:new 0 0 612 612;" xml:space="preserve">
<g>
	<g>
		<g>
			<g>
				<path d="M305.997,612C137.269,612,0,474.729,0,306C0,137.271,137.269,0,305.997,0C474.729,0,612,137.271,612,306      C612,474.729,474.729,612,305.997,612z M305.997,7.928C141.642,7.928,7.927,141.642,7.927,306      c0,164.358,133.714,298.072,298.07,298.072c164.359,0,298.075-133.714,298.075-298.072      C604.072,141.642,470.356,7.928,305.997,7.928z" fill="#FFFFFF"/>
			</g>
			<g>
				<path d="M262.066,475.578l-0.095-0.004c-34.985-1.016-44.36-23.213-44.452-34.974c-0.336-3.96-6.439-76.614-5.297-111.532      c1.027-31.265,24.842-40.811,37.291-41.489c0.918-0.033,84.255-2.949,92.331-3.526c0.601-0.042,1.319-0.08,2.142-0.122      c30.509-1.56,34.931-14.452,35.374-25.508c0.43-10.775-3.808-19.384-12.598-25.588c-5.898-4.164-11.879-5.828-13.349-6.193      c-12.988-0.143-108.257-1.199-113.535-1.784c-1.734-0.193-10.822-1.479-19.437-7.896c-6.943-5.17-15.432-15.178-16.449-33.485      c-0.508-9.134,2.042-16.735,7.58-22.587c11.661-12.329,32.696-12.237,34.599-12.201c1.725-0.062,22.175-0.758,46.382-0.758      c41.105,0,68.548,1.885,81.564,5.606c33.625,9.606,84.34,50.246,77.288,118.396c-1.504,14.526-5.13,27.483-10.778,38.515      c-1.914,5.02-4.645,9.688-8.116,13.88c-14.366,17.349-31.362,26.824-53.489,29.824c-10.202,1.381-21.282,2.079-38.053,3.138      c-10.398,0.656-23.156,1.461-38.965,2.649c0.184,11.324,0.845,45.564,2.285,61.892c1.283,14.537,0.951,20.253-0.303,22.737      c-3.12,12.393-11.286,21.672-23.667,26.873c-9.347,3.927-17.804,4.127-18.16,4.133L262.066,475.578z M245.653,156.615      c-1.958,0-19.384,0.271-28.325,9.724c-4.037,4.267-5.811,9.73-5.424,16.698c1.669,30.06,26.068,33.633,28.846,33.942      c3.745,0.415,69.738,1.268,113.182,1.741l0.777,0.087c11.718,2.477,33.604,14.011,32.567,39.935      c-1.242,30.978-32.589,32.581-42.891,33.107c-0.759,0.038-1.425,0.073-1.98,0.112c-8.218,0.587-89.102,3.418-92.542,3.539      c-1.084,0.066-28.677,2.115-29.719,33.829c-1.154,35.257,5.221,110.007,5.286,110.757l0.014,0.339      c0.011,1.048,0.696,26.128,36.646,27.222c2.063-0.062,28.796-1.378,34.385-25.753l0.577-2.193c0.171-2,0.26-6.704-0.663-17.171      c-1.756-19.928-2.346-64.327-2.372-66.207l-0.048-3.721l3.708-0.283c17.592-1.352,31.564-2.23,42.79-2.939      c16.601-1.046,27.565-1.737,37.485-3.08c20.309-2.753,35.251-11.088,48.45-27.024c2.961-3.572,5.275-7.554,6.884-11.827      l0.186-0.424c5.257-10.194,8.634-22.274,10.046-35.903c3.755-36.295-10.354-61.712-22.854-76.646      c-15.727-18.79-35.483-29.526-48.727-33.313c-12.137-3.468-39.59-5.3-79.389-5.3c-25.023,0-46.001,0.748-46.209,0.754      l-0.13,0.005L245.653,156.615z" fill="#FFFFFF"/>
			</g>
		</g>
	</g>
</g>
<g>
</g>
<g>
</g>
<g>
</g>
<g>
</g>
<g>
</g>
<g>
</g>
<g>
</g>
<g>
</g>
<g>
</g>
<g>
</g>
<g>
</g>
<g>
</g>
<g>
</g>
<g>
</g>
<g>
</g>
</svg>
