<?xml version="1.0" encoding="utf-8"?>
<!-- Generator: Adobe Illustrator 21.1.0, SVG Export Plug-In . SVG Version: 6.00 Build 0)  -->
<svg version="1.1" id="Calque_1" xmlns="http://www.w3.org/2000/svg" xmlns:xlink="http://www.w3.org/1999/xlink" x="0px" y="0px"
	 viewBox="0 0 432 432" style="enable-background:new 0 0 432 432;" xml:space="preserve">
<style type="text/css">
	.st0{fill:#EFC9AF;}
	.st1{fill:#C69C6C;}
	.st2{fill:#020203;}
	.st3{fill:#603914;}
	.st4{fill:#C1292E;}
	.st5{fill:#A67D52;}
	.st6{fill:#343434;}
	.st7{fill:#C7B29A;}
	.st8{fill:#754D24;}
	.st9{fill:#412413;}
	.st10{fill:#1B1B1B;}
	.st11{fill:#9E1460;}
	.st12{fill:#E7267A;}
	.st13{fill:#998675;}
	.st14{fill:#676767;}
	.st15{fill:#BEC1A5;}
	.st16{fill:#8D7968;}
	.st17{fill:#A6A184;}
	.st18{fill:#5B4841;}
	.st19{fill:#C1A07F;}
	.st20{fill:#72403F;}
	.st21{fill:#AA8767;}
	.st22{fill:#D6B394;}
	.st23{fill:#A34F4D;}
	.st24{fill:#B47B61;}
	.st25{fill:#E5C292;}
	.st26{fill:#B4AFA8;}
	.st27{fill:#9E9A98;}
	.st28{fill:#F39323;}
	.st29{fill:#F9B03D;}
	.st30{fill:#50B162;}
	.st31{fill:#106B40;}
	.st32{fill:#8C633A;}
	.st33{fill:#231F20;}
	.st34{fill:#2C2F32;}
	.st35{fill:#E52328;}
	.st36{fill:#C2C3C3;}
	.st37{fill:#2DABE3;}
	.st38{fill:#F9EA31;}
	.st39{fill:#E52629;}
	.st40{fill:#746458;}
	.st41{fill:#0D71B9;}
	.st42{fill:#E52521;}
	.st43{fill:#F6D9A7;}
	.st44{fill:#F4A5A6;}
	.st45{fill:#6E6F70;}
	.st46{fill:#929497;}
	.st47{fill:#F29A26;}
	.st48{fill:#E0C399;}
	.st49{fill:#F9CBCC;}
	.st50{fill:#EBDA8C;}
	.st51{fill:#30358C;}
	.st52{fill:#F6DEB8;}
	.st53{fill:#FFFFFF;}
	.st54{fill:#959FA1;}
	.st55{fill:#6A737A;}
	.st56{fill:#6CC0A9;}
	.st57{fill:#2C7179;}
	.st58{fill:#F2F2F2;}
	.st59{fill:#D83747;}
	.st60{fill:#C92C3F;}
	.st61{fill:#E67525;}
	.st62{fill:#FFD471;}
	.st63{fill:#F0832C;}
	.st64{fill:#90CDBC;}
	.st65{fill:#1E1B3C;}
	.st66{fill:#3C3C3B;}
	.st67{fill:#E94E1B;}
	.st68{fill:#BE1622;}
	.st69{fill:#665F4A;}
	.st70{fill:#3A3320;}
	.st71{fill:#13110C;}
	.st72{fill:#EDECED;}
	.st73{fill:#24211E;}
	.st74{fill:#DBD9DA;}
	.st75{fill:#D01419;}
	.st76{fill:#E1E0E0;}
	.st77{fill:#ECECEC;}
	.st78{fill:#F8F8F9;}
	.st79{fill:#6A6621;}
	.st80{fill:#89454C;}
	.st81{fill:#CBC135;}
	.st82{fill:#F8C8CB;}
	.st83{fill:#C45853;}
	.st84{fill:#729BA5;}
	.st85{fill:#F8AB00;}
	.st86{fill:#3B3835;}
	.st87{fill:#FAD3D7;}
	.st88{fill:#ECBABB;}
	.st89{fill:#F8CFB4;}
	.st90{fill:#844C16;}
	.st91{fill:#D49F61;}
	.st92{fill:#55514F;}
	.st93{fill:#B57D44;}
	.st94{fill:#FCE1E4;}
	.st95{fill:#D5D4D4;}
	.st96{fill:#B92932;}
	.st97{fill:#97C01E;}
	.st98{fill:#00AED3;}
	.st99{fill:#FFCE00;}
	.st100{fill:#E30613;}
	.st101{fill:#F28E36;}
	.st102{fill:#9B6228;}
	.st103{fill:#F6A753;}
	.st104{fill:#CB3749;}
	.st105{fill:#E4E1E1;}
	.st106{fill:#FDEA00;}
	.st107{fill:#53BFCC;}
	.st108{fill:#C2171F;}
	.st109{fill:#EA5139;}
	.st110{fill:#0098B0;}
	.st111{fill:#F28B00;}
	.st112{fill:#898584;}
	.st113{fill:#FAB84F;}
	.st114{fill:#E74310;}
	.st115{fill:#CC5E16;}
	.st116{fill:#00A33A;}
	.st117{fill:#F18600;}
	.st118{fill:#2C2523;}
	.st119{fill:#006633;}
	.st120{fill:#063141;}
	.st121{fill:#1488A9;}
	.st122{fill:#5CBCB8;}
	.st123{fill:#00472A;}
	.st124{fill:#ECC876;}
	.st125{fill:#EBA700;}
	.st126{fill:#F4E3BC;}
	.st127{fill:#BEBBBB;}
	.st128{fill:#A29F9D;}
	.st129{fill:#72C4BE;}
	.st130{fill:#DACCA3;}
	.st131{fill:#AAC5DD;}
	.st132{fill:#1B6DA2;}
	.st133{fill:#F9B233;}
	.st134{fill:#F39200;}
	.st135{fill:#5E5957;}
	.st136{fill:#BACFDD;}
	.st137{fill:#DBC6AF;}
	.st138{fill:#B17F4A;}
	.st139{fill:#467A97;}
	.st140{fill:#95C11F;}
	.st141{fill:#1D71B8;}
	.st142{fill:#2FAC66;}
	.st143{fill:#00A19A;}
	.st144{fill:#0B3958;}
	.st145{fill:#3AAA35;}
	.st146{fill:#1B4B64;}
	.st147{fill:none;}
	.st148{fill:#EBD53E;}
	.st149{fill:#EFF0F1;}
	.st150{fill:#F1BE00;}
	.st151{fill:#DFA600;}
	.st152{fill:#DAEEEE;}
	.st153{fill:#E9E7EA;}
	.st154{fill:#DE0B15;}
	.st155{fill:#AA1918;}
	.st156{fill:#76232F;}
	.st157{fill:#DC0C1F;}
	.st158{fill:#DC3015;}
	.st159{fill:#AA7F47;}
	.st160{fill:#DAAC71;}
	.st161{fill:#342D45;}
	.st162{fill:#F6F5F9;}
	.st163{fill:#1B1814;}
	.st164{fill:#E03D13;}
	.st165{fill:#BF2B17;}
	.st166{fill:#F5F0EF;}
	.st167{fill:#F19500;}
	.st168{fill:#D8870D;}
	.st169{fill:#31AD71;}
	.st170{fill:#2F7C55;}
	.st171{fill:#1A1814;}
	.st172{fill:#4B4845;}
	.st173{fill:#FAEEF0;}
	.st174{fill:#D19B09;}
	.st175{fill:#F1D7B5;}
	.st176{fill:#FCFCFD;}
	.st177{fill:#93BEC8;}
	.st178{fill:#D8D3D2;}
	.st179{fill:#4D4843;}
	.st180{fill:#4EABB8;}
	.st181{fill:#383835;}
	.st182{fill:#D5DADB;}
	.st183{fill:#9EBABB;}
	.st184{fill:#B4181C;}
	.st185{fill:#DD6A10;}
	.st186{fill:#F0F0F1;}
	.st187{fill:#753811;}
	.st188{fill:#DB0D1B;}
	.st189{fill:#DA213C;}
	.st190{fill:#BCDBB6;}
	.st191{fill:#9A9999;}
	.st192{fill:#4DA354;}
	.st193{fill:#DBBC9A;}
	.st194{fill:#A48A7B;}
	.st195{fill:#C5C2C2;}
	.st196{fill:#CC1417;}
	.st197{fill:#44403D;}
	.st198{fill:#F8D000;}
	.st199{fill:#974493;}
	.st200{fill:#F0811A;}
	.st201{fill:#58B034;}
	.st202{fill:#5BC4E9;}
	.st203{fill:#F8D71A;}
	.st204{fill:#E52921;}
	.st205{fill:#DDAE76;}
	.st206{fill:#F9DCBB;}
	.st207{fill:#CC6F22;}
	.st208{fill:#9CCDC5;}
	.st209{fill:#49998B;}
	.st210{fill:#9F3148;}
	.st211{fill:#DDA519;}
	.st212{fill:#EDC4A2;}
	.st213{fill:#5F3B17;}
	.st214{fill:#191517;}
	.st215{fill:#D9A67E;}
	.st216{fill:#C47713;}
	.st217{fill:#A91917;}
	.st218{fill:#DBC8CE;}
	.st219{fill:#9C6E80;}
	.st220{fill:#BC738E;}
	.st221{fill:#1E1E1C;}
	.st222{fill:#EAEAEA;}
	.st223{fill:#4E4D4D;}
	.st224{fill:#E7E6E6;}
	.st225{fill:#FED063;}
	.st226{fill:#FCBF0A;}
	.st227{fill:#AA5A9F;}
	.st228{fill:#833081;}
	.st229{fill:#882C87;}
	.st230{fill:#A4B639;}
	.st231{fill:#B9C95E;}
	.st232{fill:#D690BB;}
	.st233{fill:#AB6F97;}
</style>
<g>
	<g>
		<g>
			<path class="st181" d="M241.6,122.8c-1.4-22.9-36.1-39.7-32.9-1.2c1.3,15.5,5.4,11.1,32.4,2.3
				C241.7,123.8,241.3,121.3,241.6,122.8z"/>
			<path class="st181" d="M303.9,164.8c21.9-6.6,49.7,20.1,12.4,30.5c-15,4.2-12.2-1.3-13.4-29.6C303,165,305.4,164.5,303.9,164.8z"
				/>
		</g>
		<g>
			
				<ellipse transform="matrix(0.5723 -0.82 0.82 0.5723 -44.3881 279.6407)" class="st182" cx="245.9" cy="182.4" rx="64.3" ry="64.3"/>
			<g>
				
					<ellipse transform="matrix(0.5723 -0.82 0.82 0.5723 -44.3881 279.6407)" class="st182" cx="245.9" cy="182.4" rx="64.3" ry="64.3"/>
				<g>
					<g>
						
							<ellipse transform="matrix(0.5723 -0.82 0.82 0.5723 -51.6123 276.9592)" class="st183" cx="239.7" cy="188" rx="21.9" ry="21.9"/>
						<path class="st181" d="M231.5,202.1c1.5-2.1,2.9-4.2,4.3-6.3c3.6,1.6,8.4-0.1,10.2-2.6c2-2.8-0.1-6.2-3.8-8.7
							c-3.7-2.6-7.5-3.4-9.5-0.5c-1.9,2.7-1.7,8.1,1.5,10.9c-1.4,2.2-2.9,4.3-4.4,6.4c-2.4-0.9-5.2-0.2-6.7,1.9
							c-1.8,2.5-1,6.1,1.6,8c2.7,1.9,6.3,1.3,8.1-1.2C234.5,207.4,233.9,204,231.5,202.1z"/>
					</g>
					<g>
						<g>
							<path class="st181" d="M298.8,196.7l-0.1,0.2c0.6-5.9-0.7-12.4-4-18.2c-7.7-13.5-23.5-19.1-35.4-12.3
								c-11.8,6.7,6,18.1-1.9,31.5c-10.9,18.3,17.5,24.4,29.8,17.6c2.8-1.5,5.1-3.7,6.9-6.1c2.7,1.6,5.8,2.6,8.9,2.8
								c1.9-3.6,3.4-7.3,4.5-11.1C304.5,199.7,301.6,198.3,298.8,196.7z"/>
							<path class="st181" d="M197.2,154.8c-2.1,13.9,13.3,38.4,26.8,21.9c9.8-12.1,26.6,0.8,28.9-12.7s-8.4-26.4-23.8-28.9
								c-8-1.3-15.7,0.4-21.6,4.3c-1.2-1.9-2.3-3.9-3.4-5.9c-2.5,2.1-4.8,4.5-7,7c1,1.9,2.3,3.6,3.8,5.1
								C199,148.3,197.7,151.4,197.2,154.8z"/>
						</g>
						<g>
							
								<ellipse transform="matrix(0.5723 -0.82 0.82 0.5723 -37.9844 306.6764)" class="st53" cx="275" cy="189.8" rx="11.9" ry="11.9"/>
							<g>
								<path class="st181" d="M268.9,185.5c-2.4,3.4-1.5,8.1,1.9,10.4c3.4,2.4,8.1,1.5,10.4-1.9s1.5-8.1-1.9-10.4
									C275.9,181.2,271.2,182.1,268.9,185.5z M272.9,190.6c0.6-0.8,1.8-1.1,2.6-0.5s1.1,1.8,0.5,2.6c-0.6,0.8-1.8,1.1-2.6,0.5
									C272.5,192.6,272.3,191.4,272.9,190.6z M274.6,187.1c0.4-0.6,1.2-0.7,1.7-0.3c0.6,0.4,0.7,1.2,0.3,1.7
									c-0.4,0.6-1.2,0.7-1.7,0.3C274.3,188.5,274.2,187.7,274.6,187.1z"/>
							</g>
						</g>
					</g>
				</g>
			</g>
			<g>
				
					<ellipse transform="matrix(0.5723 -0.82 0.82 0.5723 -32.0177 251.5391)" class="st53" cx="225.1" cy="156.5" rx="11.9" ry="11.9"/>
				<g>
					<path class="st181" d="M229.4,150.3c-3.4-2.4-8.1-1.5-10.4,1.9c-2.4,3.4-1.5,8.1,1.9,10.4c3.4,2.4,8.1,1.5,10.4-1.9
						C233.7,157.4,232.8,152.7,229.4,150.3z M222.5,159.2c-0.8-0.6-1.1-1.8-0.5-2.6s1.8-1.1,2.6-0.5s1.1,1.8,0.5,2.6
						S223.3,159.8,222.5,159.2z M226,156.3c-0.6-0.4-0.7-1.2-0.3-1.7c0.4-0.6,1.2-0.7,1.7-0.3s0.7,1.2,0.3,1.7
						C227.4,156.6,226.6,156.7,226,156.3z"/>
				</g>
			</g>
			<g>
				<path class="st184" d="M189.7,214.8c-2.9-21.1-64.3-1.3-99-0.7c-33.3,0.6-33.5,11.7-23.1,18.1c-6.4,4.2-12,10.1-13.3,17.9
					c-3.1,19.6,17.3,20.5,22.2,22.5c8.2,3.5-7.8,16.6,16.6,32.9c22,14.7,26.7,8,46.8-6.5C204.5,252.6,227.9,240.7,189.7,214.8z"/>
				<g>
					<path class="st181" d="M266.3,254.6c-8.4-0.2-19.4,2.7-27-1.5c-2.8-2-4.5-5.4-0.4-7.1c1.4-0.6,3-0.7,4.2-1.6
						c2-1.4,1.4-3.1-0.2-4.6c-4.9-4.4-11-7.9-16.4-11.8c-14.6-10.4-45.2-36.1-39.8-19.6c1.3,4.1,0,1.5-24.1,3.5
						c-26.4,2.2-38.7,12.4-35.1,18.7c10.5,18.1,58-7.7,45,12.9c-11,14.6-6.8-1.9-35.2,40.3c-17.7,26.3,1.5,38.8,28.3-0.5
						c4,4.9,9.6,8.2,15.9,9.3c-36.2,50.1,1.9,62.5,30.5-11.3c15.4-8.9,56.7,4.5,70.6-8.4C290.4,265.5,286.4,255,266.3,254.6z"/>
					<path class="st185" d="M207.6,294.1c1.5-5.5,6.2-9.3,9.5-14c1.1-1.6-3.6,0.4-25.9-16.6c-20.3-15.5-20.6-21.2-22.9-18.6
						c-3.6,4.1-7.2,9.8-12.3,12.1c-0.7,0.3-0.9,1.3-0.4,1.8c7,8.1,16.4,14.5,24.9,20.9c4.5,3.4,9.2,6.6,14,9.5
						c3.3,2,7.9,5.6,11.9,5.6C206.9,294.9,207.5,294.6,207.6,294.1z"/>
				</g>
			</g>
		</g>
	</g>
	<g>
		<g>
			<path class="st186" d="M377.8,148.4c-0.9-4.8-5.6-7.1-9.8-8.6c10.4-14.1-16.7-32.2-37.2-15.7c-1-4.2,0.6-8.3-3.3-13.4
				c-5.9-7.7-23.8-15.3-31.8,5.6c-18.2-14.3-23.5,4.2-18.6,9.7c-8.6,3.6-7,22.7,15.6,23.8c4.3,0.2,8.7-0.1,12.5-2.1
				c-2,11.4,22.2,27.3,33.6,15.5c7.1,7.5,24.6,5.5,32-0.5C374.8,159.5,378.9,153.8,377.8,148.4z"/>
			<path class="st186" d="M182.9,118.5c-2.8-4-8.1-4.1-12.5-3.7c3.6-17.2-28.5-22.4-40.4,1.1c-2.7-3.4-2.9-7.9-8.5-10.8
				c-8.6-4.5-28-4.1-26.7,18.3c-22.5-5.5-19.7,13.5-12.9,16.5c-6.3,6.8,3,23.6,24.1,15.2c4-1.6,7.9-3.7,10.6-7.1
				c2.9,11.2,31.5,15.7,37,0.3c9.6,3.9,24.7-5.2,29-13.7C184.8,130,186.1,123.1,182.9,118.5z"/>
		</g>
		<g>
			<path class="st181" d="M322.2,305.6c-15.8,7-33.4,12.6-50.9,11.1c-5.4-0.5-14.4-1.9-18.8-6.5c9.9-1.2,25-3,28.5-7.7
				c7.3-9.9-30.6-12.4-33.3,0.8c-0.4,1.8-0.1,3.5,0.5,5c-11.4,1.2-22.8,2.2-33.9,4.8c-1.5,0.4-0.9,2.7,0.6,2.3
				c11.4-2.7,23.1-3.6,34.7-4.9c3.2,3.9,9.4,6.3,13.4,7.3c20.1,5.1,42.2-2,60.4-10.1C324.8,307.1,323.6,305,322.2,305.6z
				 M250.1,306.5c-4.4-13.2,36.7-11.2,27.8-4.5c-4,3-12.4,4.3-27.2,6C250.5,307.5,250.3,307,250.1,306.5z"/>
			<path class="st181" d="M274.8,326.2c-13-1.2-25.9-2-39-2.3c-1.6,0-1.6,2.4,0,2.4c13,0.3,26,1.1,39,2.3
				C276.3,328.8,276.3,326.4,274.8,326.2z"/>
			<path class="st181" d="M161.9,180c-5.6,3.6-11.9,5.5-18.5,5.5c-1.9,0-3.8-0.2-5.7-0.5c3-2,7.3-5.7,5.2-9.6
				c-4.6-8.7-26.6,1.9-11.5,10c-1.4,0.5-2.8,0.9-4.2,1.2c-7.6,1.5-15.3,0.2-22.8-1c-1.5-0.2-2.2,2.1-0.6,2.3
				c10.1,1.7,21.3,3.3,30.8-1.1c9.4,3,20.5,0.6,28.6-4.6C164.4,181.3,163.2,179.2,161.9,180z M134.3,184c-0.1-0.1-0.3-0.1-0.4-0.2
				c-1.2-0.5-2.3-1.1-3.3-1.9c-1.3-0.8-1.6-2-0.9-3.4c1-7.4,19.5-3.6,6.3,4.5C135.5,183.4,134.9,183.8,134.3,184z"/>
			<path class="st181" d="M125.3,194.9c-5.5,0.2-11,0.1-16.5-0.3c-1.5-0.1-1.5,2.3,0,2.4c5.5,0.4,11,0.5,16.5,0.3
				C126.9,197.2,126.9,194.8,125.3,194.9z"/>
		</g>
	</g>
</g>
</svg>
